<?xml version="1.0" standalone="no"?>
<!DOCTYPE svg PUBLIC "-//W3C//DTD SVG 20010904//EN"
 "http://www.w3.org/TR/2001/REC-SVG-20010904/DTD/svg10.dtd">
<svg version="1.0" xmlns="http://www.w3.org/2000/svg"
 width="1171.000000pt" height="1280.000000pt" viewBox="0 0 1171.000000 1280.000000"
 preserveAspectRatio="xMidYMid meet">
<metadata>
Created by potrace 1.16, written by Peter Selinger 2001-2019
</metadata>
<g transform="translate(0.000000,1280.000000) scale(0.100000,-0.100000)"
fill="#000000" stroke="none">
<path d="M0 6415 c0 -6258 0 -6385 19 -6385 10 0 21 -7 25 -15 8 -22 116 -22
116 0 0 8 -4 15 -10 15 -5 0 -10 9 -10 20 0 11 -6 20 -12 20 -9 0 -9 3 1 9 12
8 12 12 2 25 -11 13 -11 20 3 41 9 13 16 33 16 44 0 24 19 38 30 21 4 -7 7
-57 5 -111 l-2 -99 133 0 134 0 -6 64 c-2 36 -1 67 5 70 12 8 -10 56 -26 56
-7 0 -13 7 -13 15 0 18 27 20 33 3 2 -7 7 -10 11 -7 11 10 -5 39 -22 39 -8 0
-12 3 -8 7 4 5 13 8 19 8 7 0 14 23 17 56 3 31 10 62 16 70 14 18 11 86 -4
101 -7 7 -12 26 -12 43 0 17 -6 37 -12 43 -10 10 -10 17 0 32 7 11 9 20 5 20
-5 0 -9 34 -9 75 -1 41 2 75 6 75 10 0 27 -44 39 -98 10 -49 15 -57 29 -48 13
8 -2 73 -22 95 -20 22 -20 111 1 111 7 0 13 -9 13 -21 0 -27 16 -16 22 16 3
16 1 25 -7 25 -15 0 -28 42 -19 63 6 18 32 30 45 21 5 -3 9 2 9 10 0 11 -10
16 -27 17 -27 1 -27 1 4 10 38 11 37 9 18 55 -8 20 -12 48 -8 64 3 19 1 30 -6
30 -6 0 -11 16 -11 35 0 36 -25 60 -39 38 -4 -7 -10 -7 -18 2 -7 7 -8 17 -2
26 7 11 9 10 10 -6 0 -11 6 0 13 25 l12 45 8 -37 c4 -21 13 -41 20 -45 7 -5
18 -21 23 -38 8 -24 10 -10 7 63 -1 52 -6 107 -9 123 -4 18 -3 29 4 29 13 0
15 36 3 44 -5 3 -5 30 -1 61 14 105 11 242 -7 259 -8 9 -12 16 -7 16 4 0 9
103 10 230 1 126 5 242 8 257 27 146 45 274 49 353 4 52 15 138 25 190 11 52
25 136 31 185 12 88 42 206 75 295 9 25 20 64 24 87 4 23 12 48 18 55 10 14
35 92 54 173 19 80 48 130 157 271 71 93 165 208 174 214 36 26 166 165 161
173 -3 6 -1 7 5 3 6 -3 31 8 56 26 50 35 63 59 18 32 -26 -16 -26 -15 3 10 17
14 31 22 33 16 2 -5 10 -6 18 -3 7 3 12 9 9 13 -3 4 3 14 12 21 11 10 14 10 9
2 -5 -9 -2 -11 8 -7 9 3 16 12 16 19 0 17 224 186 299 225 34 18 64 36 66 41
3 4 29 20 58 34 29 15 68 38 87 53 19 15 49 34 65 42 17 8 41 23 54 32 14 10
32 16 43 13 13 -5 16 -2 12 10 -5 12 4 20 35 32 22 9 41 20 41 25 0 5 5 6 10
3 6 -3 10 -2 10 4 0 5 17 20 37 32 21 13 40 27 41 31 2 4 8 8 13 8 6 0 39 20
75 45 36 24 71 42 79 38 8 -3 15 0 15 6 0 6 24 23 53 37 28 15 68 39 87 53 19
15 51 35 70 44 52 24 141 82 170 111 14 13 52 39 85 56 33 18 67 37 75 44 8 7
29 18 45 26 17 8 58 39 91 70 71 63 151 124 209 159 22 13 59 41 82 62 23 21
73 58 110 82 37 24 98 67 136 95 37 28 77 57 90 63 12 7 24 15 27 18 3 4 32
29 65 57 65 55 123 86 140 76 6 -4 3 -8 -8 -10 -9 -2 -15 -8 -12 -13 3 -5 -1
-6 -9 -3 -10 4 -18 -1 -23 -11 -8 -21 -62 -75 -75 -75 -5 0 -32 -47 -59 -105
-65 -138 -84 -228 -75 -364 7 -113 58 -362 82 -399 8 -12 12 -27 9 -32 -3 -5
3 -17 15 -27 11 -10 20 -24 20 -32 0 -44 193 -296 335 -436 109 -107 206 -191
238 -205 7 -3 44 -26 82 -51 91 -60 304 -169 330 -169 15 0 2 20 -17 26 -20 6
-151 69 -267 129 -18 10 -62 40 -98 66 -35 27 -68 49 -73 49 -21 0 -229 203
-281 274 -16 21 -26 43 -23 48 4 5 17 -9 31 -31 25 -42 49 -56 38 -22 -13 43
16 28 45 -23 24 -43 35 -53 51 -49 26 7 32 19 21 40 -18 35 12 59 37 29 12
-15 4 -109 -10 -101 -12 8 -22 -16 -11 -27 6 -6 12 -6 16 1 10 16 29 13 23 -3
-6 -16 19 -56 35 -56 5 0 8 7 4 15 -10 27 9 16 28 -15 20 -34 42 -31 23 3 -16
29 -27 37 -55 37 l-22 0 20 20 c24 24 27 52 5 44 -8 -4 -15 -1 -15 5 0 13 -2
13 60 0 61 -13 69 -36 10 -31 -47 5 -53 -10 -10 -28 29 -12 47 -41 36 -59 -6
-8 15 -21 35 -21 16 0 10 49 -7 58 -12 7 -5 9 25 9 35 0 41 -3 36 -16 -5 -14
-4 -14 11 1 9 9 18 31 18 47 1 27 -2 31 -25 31 -14 0 -29 3 -32 7 -12 12 35
53 62 54 25 2 25 2 3 6 -13 3 -27 15 -32 29 -5 13 -14 24 -19 24 -5 0 -11 9
-14 20 -3 12 0 20 7 20 6 0 19 -9 29 -20 9 -11 24 -20 32 -20 22 0 9 17 -26
35 -16 9 -27 20 -24 25 3 5 1 11 -4 15 -5 3 -14 -2 -19 -11 -10 -18 -52 -11
-52 9 0 8 3 8 12 -1 17 -17 29 -15 26 6 -2 11 4 18 20 20 26 4 28 14 7 32 -12
10 -18 10 -32 -1 -15 -13 -16 -11 -10 10 4 18 -2 34 -23 62 -32 40 -38 59 -17
59 6 1 -1 8 -17 16 -20 11 -25 18 -16 24 9 5 9 9 1 14 -6 4 -15 4 -21 1 -6 -4
-10 5 -10 19 0 16 5 25 12 24 7 -2 13 4 13 12 0 8 -7 14 -16 12 -20 -3 -43 23
-36 42 3 7 0 19 -6 25 -8 8 -7 11 4 11 8 0 20 -5 27 -12 9 -9 13 -7 18 5 4 12
13 15 32 10 19 -4 23 -3 17 7 -5 8 -1 18 10 27 23 16 12 18 -13 2 -14 -9 -27
-7 -61 11 -46 23 -51 37 -7 20 38 -14 47 -13 44 8 -2 9 4 18 12 18 8 1 19 2
24 3 5 0 3 8 -4 16 -7 8 -16 12 -21 9 -5 -2 -22 8 -39 24 -26 25 -30 35 -26
66 2 20 0 39 -5 42 -6 3 -8 12 -5 20 5 13 -30 41 -46 36 -10 -2 12 48 29 69
12 14 12 17 -1 22 -20 8 -14 61 8 65 14 3 15 7 5 18 -6 8 -18 14 -25 14 -8 0
-14 5 -14 10 0 6 18 10 40 10 23 0 40 5 40 11 0 7 10 9 26 5 24 -6 25 -5 11 8
-8 8 -21 17 -28 18 -17 4 -49 30 -49 40 0 5 7 8 15 8 8 0 15 -4 15 -10 0 -5 7
-7 15 -4 8 4 15 1 15 -5 0 -13 39 -35 48 -27 3 4 -4 13 -16 22 -12 8 -22 19
-22 25 0 17 29 9 44 -13 12 -17 18 -20 28 -10 9 9 8 12 -5 12 -9 0 -17 6 -17
14 0 8 -6 17 -13 19 -6 3 0 6 14 6 29 1 55 -22 44 -39 -4 -6 6 -13 24 -16 17
-4 28 -10 25 -15 -3 -5 -1 -9 4 -9 13 0 62 -47 62 -59 0 -5 -6 -11 -13 -14 -6
-2 1 -4 16 -4 31 -1 56 -27 57 -60 0 -18 6 -23 24 -23 30 0 43 -17 26 -33 -9
-9 -15 -8 -25 6 -8 12 -15 14 -20 8 -10 -17 19 -39 56 -43 37 -3 54 -33 22
-40 -14 -3 -12 -7 12 -19 36 -17 57 -68 49 -121 -4 -28 -2 -38 8 -38 7 0 2 -9
-11 -19 l-24 -19 34 -7 c19 -4 41 -15 50 -24 9 -9 28 -25 43 -35 30 -22 34
-36 9 -36 -15 -1 -15 -3 5 -19 12 -11 22 -23 22 -27 0 -4 7 -16 17 -26 14 -16
14 -22 3 -44 -9 -16 -21 -24 -34 -22 -27 4 -31 24 -5 31 23 6 17 27 -7 27 -8
0 -12 4 -9 10 3 6 -1 7 -10 4 -12 -5 -13 -10 -4 -20 9 -11 7 -15 -6 -20 -10
-4 -20 -1 -25 6 -12 19 -40 4 -40 -21 0 -19 4 -20 40 -14 36 6 40 5 40 -14 0
-12 5 -21 10 -21 6 0 10 -12 10 -26 0 -25 -2 -26 -44 -23 -24 2 -42 1 -39 -3
2 -5 13 -8 23 -8 10 0 21 -4 25 -9 3 -5 19 -12 35 -16 19 -4 30 -13 30 -23 0
-10 14 -23 30 -30 36 -16 43 -46 8 -33 -13 4 -41 11 -63 15 l-40 7 45 -21 c24
-12 47 -25 50 -29 3 -4 15 -13 28 -20 25 -13 29 -31 7 -31 -8 0 -15 -7 -15
-16 0 -14 3 -15 23 -2 12 8 30 12 41 10 16 -3 15 -7 -10 -23 -29 -20 -29 -20
-4 -14 18 4 34 0 51 -13 13 -11 44 -25 68 -32 45 -12 71 -30 71 -49 0 -6 12
-8 29 -5 21 4 30 2 34 -11 4 -9 12 -13 18 -10 6 4 17 -2 25 -14 21 -29 58 -29
49 0 -6 18 -5 19 13 10 26 -14 62 -14 62 -1 0 6 -8 14 -17 17 -10 4 -24 13
-31 20 -11 11 -11 13 3 13 9 0 26 -10 38 -22 24 -24 28 -24 164 -27 69 -2 82
-5 82 -19 1 -9 4 -35 7 -58 l6 -41 45 7 c26 4 54 5 65 2 25 -6 23 15 -2 23
-28 9 -25 23 8 37 26 12 25 12 -24 18 l-52 5 24 18 c21 15 24 16 24 2 0 -19
14 -19 30 0 9 10 17 12 23 6 11 -11 37 -4 37 10 0 5 -9 9 -21 9 -12 0 -17 4
-13 11 3 6 17 8 30 5 17 -5 26 -2 30 9 6 14 8 14 24 0 12 -11 20 -13 25 -6 3
6 0 11 -7 11 -13 0 37 29 130 76 48 24 62 41 46 57 -4 3 -6 28 -6 54 0 82 1
85 20 79 22 -7 56 19 49 37 -3 8 7 21 24 31 16 9 29 21 29 26 0 22 -18 15 -60
-21 -50 -44 -53 -45 -71 -23 -12 15 -11 16 6 11 17 -6 20 -2 21 27 0 31 26 71
45 71 4 0 11 3 15 7 4 5 16 8 26 8 22 0 24 28 3 37 -14 5 -14 7 -1 22 8 9 17
28 21 43 4 17 15 28 28 30 16 2 21 9 19 24 -3 22 21 39 39 28 5 -3 9 2 9 10 0
8 11 27 25 42 14 15 25 37 25 49 0 14 9 26 25 33 14 6 25 18 25 27 0 8 5 15
10 15 6 0 10 9 10 20 0 11 4 20 10 20 20 0 42 74 36 123 -4 40 -3 47 11 45 10
-2 16 6 19 26 1 16 8 34 13 39 6 6 11 19 11 29 0 10 4 18 9 18 5 0 9 6 8 13 0
6 1 26 2 42 2 29 2 29 17 10 13 -17 16 -18 24 -5 5 8 10 25 10 38 0 15 6 22
19 22 11 0 27 10 35 21 9 13 21 19 30 16 26 -10 31 -7 28 13 -3 17 3 20 37 20
36 0 41 -3 41 -24 0 -13 -7 -40 -15 -59 -15 -36 -9 -52 17 -42 18 7 34 -11 40
-47 3 -17 0 -29 -8 -32 -8 -3 -14 -19 -14 -36 0 -24 4 -30 21 -30 12 0 19 -5
17 -12 -3 -7 -14 -13 -26 -13 -27 0 -30 -17 -5 -30 10 -5 20 -11 22 -12 2 -2
-1 -9 -8 -17 -9 -11 -8 -17 4 -29 10 -11 12 -18 4 -22 -32 -20 -32 -105 0
-105 14 -1 14 -2 -2 -11 -9 -6 -15 -15 -11 -20 14 -23 14 -77 -1 -83 -24 -9
-17 -26 9 -26 28 0 41 -14 29 -32 -18 -29 -22 -156 -6 -170 7 -6 13 -18 13
-28 0 -11 10 -20 25 -24 15 -4 23 -11 19 -17 -4 -8 -10 -7 -17 0 -11 11 -47
16 -47 6 0 -32 50 -75 89 -75 14 -1 13 -3 -1 -14 -23 -17 -23 -22 2 -29 15 -4
20 0 20 13 0 24 16 34 23 16 7 -16 -2 -56 -15 -73 -5 -7 -7 -21 -3 -33 5 -16
2 -20 -14 -20 -24 0 -46 -31 -56 -78 -4 -18 -11 -30 -15 -27 -5 3 -15 -6 -22
-19 l-13 -25 -11 24 c-10 21 -9 24 13 30 29 7 22 23 -9 21 -25 -1 -27 -13 -14
-76 5 -23 4 -30 -2 -21 -5 7 -15 10 -21 7 -6 -4 -11 -2 -11 3 0 6 -4 11 -10
11 -5 0 -10 -7 -10 -15 0 -8 5 -15 10 -15 16 0 12 -28 -7 -50 -10 -11 -25 -20
-35 -20 -10 0 -18 -5 -18 -11 0 -15 -72 -99 -81 -93 -4 2 -10 -4 -13 -13 -4
-10 -29 -34 -56 -54 -33 -25 -45 -39 -36 -42 8 -3 22 3 32 14 9 10 21 19 25
19 28 0 268 243 352 355 45 61 97 136 97 141 0 3 13 24 29 47 63 93 121 221
91 202 -11 -7 -24 38 -17 57 2 7 8 1 12 -14 9 -35 25 -36 25 -2 0 14 4 23 9
19 10 -6 60 148 81 245 19 93 24 277 10 375 -11 79 -21 106 -77 215 -36 69
-69 130 -74 136 -4 5 -6 20 -3 31 7 27 17 24 112 -38 40 -27 82 -51 92 -54 11
-4 20 -11 20 -16 0 -5 6 -9 13 -8 39 8 101 -16 149 -57 29 -24 57 -45 62 -45
21 -2 31 -5 56 -16 14 -5 32 -12 40 -15 8 -2 15 -13 15 -23 0 -14 12 -23 41
-31 50 -14 78 -32 165 -101 36 -29 71 -53 78 -53 6 0 11 -4 11 -10 0 -13 66
-40 96 -40 13 0 24 -4 24 -9 0 -7 13 -14 50 -25 3 -1 12 -6 20 -11 8 -6 24
-15 35 -21 11 -6 19 -15 18 -21 -1 -6 6 -9 15 -6 26 6 75 -15 66 -29 -4 -7 -3
-8 4 -4 12 7 144 -50 150 -66 2 -4 9 -5 15 -1 7 4 8 0 4 -11 -6 -14 -3 -17 8
-12 13 5 105 -34 217 -90 14 -8 34 -14 43 -14 10 0 13 -5 9 -12 -5 -8 -2 -9
10 -5 14 6 58 -13 76 -33 15 -17 62 -40 81 -40 24 0 79 -30 79 -43 0 -4 4 -6
9 -2 9 5 91 -30 131 -55 40 -25 103 -48 117 -43 9 4 14 2 10 -3 -3 -5 6 -15
21 -21 15 -7 63 -27 107 -46 106 -45 302 -147 316 -163 11 -13 -58 11 -103 37
-10 5 -18 5 -18 0 0 -5 15 -14 33 -21 17 -7 47 -19 65 -27 18 -8 37 -11 42 -8
6 3 10 -1 10 -9 0 -15 14 -20 47 -19 7 1 11 -3 8 -7 -6 -10 73 -65 81 -57 4 4
-5 12 -20 18 -14 7 -26 16 -26 20 0 9 95 -44 123 -69 14 -12 15 -17 5 -24 -9
-6 -6 -8 7 -4 20 6 30 -1 167 -112 103 -83 213 -168 239 -185 15 -9 54 -41 88
-72 46 -43 63 -67 71 -98 16 -62 25 -81 92 -184 33 -52 66 -111 73 -131 8 -20
29 -64 49 -96 20 -33 36 -66 36 -75 0 -8 29 -73 65 -145 35 -72 80 -183 100
-246 20 -63 41 -131 47 -150 6 -19 39 -107 74 -195 64 -165 122 -370 143 -510
7 -44 24 -107 38 -140 14 -33 33 -81 44 -108 23 -56 68 -222 110 -402 21 -87
37 -135 49 -145 10 -8 22 -28 26 -45 4 -16 10 -34 14 -40 4 -5 11 -29 15 -52
4 -27 12 -43 21 -43 12 0 14 231 14 1617 0 1565 -1 1616 -18 1600 -10 -10 -24
-17 -30 -17 -7 0 -12 -4 -12 -9 0 -15 -59 -33 -87 -27 -30 8 -110 60 -130 86
-33 42 -60 202 -40 238 7 11 25 45 41 74 33 61 64 98 83 98 7 0 13 5 13 10 0
6 28 10 65 10 35 0 76 5 90 12 l25 11 -2 2210 -3 2210 -60 13 c-84 17 -115 31
-146 64 -83 87 -45 285 64 334 64 28 98 36 117 26 10 -6 21 -10 24 -10 3 0 6
182 6 405 0 223 -4 405 -8 405 -5 0 -17 -7 -28 -15 -12 -9 -42 -14 -79 -15
-52 0 -67 -5 -112 -35 -56 -38 -82 -39 -176 -7 -38 13 -52 14 -67 4 -30 -18
-55 -15 -113 16 -57 30 -76 48 -77 75 0 9 -4 17 -10 17 -5 0 -10 14 -10 30 0
20 -5 30 -15 30 -11 0 -15 -11 -15 -40 0 -22 -4 -40 -10 -40 -5 0 -10 -10 -10
-23 0 -12 -11 -31 -25 -41 -14 -10 -25 -25 -25 -33 0 -7 -14 -16 -30 -20 -17
-3 -33 -10 -36 -14 -3 -5 -14 -9 -25 -9 -27 0 -99 38 -99 52 0 6 -7 19 -16 29
-12 14 -19 56 -27 172 -11 168 -7 194 39 244 21 22 28 24 72 18 40 -5 56 -14
86 -46 20 -22 36 -49 36 -60 0 -11 7 -22 15 -25 8 -4 15 -15 15 -25 0 -10 7
-19 15 -19 8 0 15 -4 15 -10 0 -5 8 -10 19 -10 15 0 21 12 30 60 7 33 16 60
21 60 5 0 12 11 16 24 6 24 67 56 107 56 10 0 32 7 50 16 55 29 142 45 177 33
17 -6 47 -8 68 -4 20 4 72 9 115 12 60 3 77 2 77 -9 1 -7 9 -31 20 -53 l19
-40 1 338 0 337 -22 0 c-12 0 -34 -11 -48 -25 -32 -31 -106 -46 -161 -34 -22
5 -83 8 -136 7 l-95 -3 -39 44 c-22 24 -42 56 -44 70 -3 14 -10 46 -16 71 -22
94 -23 168 -3 228 26 82 16 74 190 165 19 9 34 22 34 27 0 6 6 10 14 10 7 0
21 11 30 25 53 81 129 87 196 15 23 -24 54 -43 75 -45 l25 -3 0 149 0 149
-560 0 -560 0 0 -59 c0 -80 43 -160 125 -232 116 -102 160 -199 159 -349 0
-77 -22 -204 -43 -255 -16 -39 -41 -123 -41 -137 0 -30 -73 -154 -111 -189
-21 -19 -39 -41 -39 -47 0 -7 -4 -12 -10 -12 -5 0 -10 -11 -10 -25 0 -14 -4
-25 -10 -25 -5 0 -10 -18 -10 -40 0 -22 -4 -40 -9 -40 -5 0 -11 -12 -13 -27
-2 -22 -9 -29 -30 -31 -23 -3 -28 1 -28 17 0 12 -7 21 -15 21 -8 0 -15 9 -15
20 0 11 -4 20 -9 20 -5 0 -12 26 -16 58 l-6 57 -45 -3 c-24 -2 -44 -8 -44 -13
0 -5 -7 -9 -15 -9 -8 0 -15 -7 -15 -15 0 -8 -7 -15 -15 -15 -9 0 -18 -12 -21
-29 -4 -18 -17 -34 -37 -45 -39 -19 -70 -39 -77 -47 -3 -3 -21 -9 -40 -12 -19
-4 -55 -12 -80 -17 -82 -19 -130 -23 -130 -11 0 6 -7 11 -15 11 -8 0 -24 5
-34 12 -14 9 -52 9 -158 0 -170 -15 -240 -15 -248 -2 -3 6 -19 10 -35 10 -16
0 -32 5 -35 10 -3 6 -14 10 -23 10 -10 0 -25 9 -35 20 -9 11 -23 20 -30 20 -7
0 -19 10 -27 22 -8 11 -48 54 -88 94 -39 41 -72 82 -72 93 0 11 -5 21 -12 23
-15 5 -16 197 -1 206 5 4 16 24 22 45 7 20 17 37 22 37 5 0 9 9 9 20 0 11 6
20 14 20 7 0 16 10 19 23 24 100 36 139 47 152 13 15 6 105 -8 105 -4 0 -13
20 -21 44 -7 24 -24 54 -38 65 -13 12 -31 38 -40 58 -8 20 -23 43 -33 52 -10
9 -26 40 -36 69 -10 28 -21 52 -25 52 -4 0 -11 10 -15 22 -3 12 -13 28 -20 36
-8 7 -14 24 -14 37 0 13 -7 31 -16 39 -8 9 -18 32 -21 51 l-6 35 -4483 0
-4484 0 0 -6385z m5126 4720 c9 -8 11 -15 5 -15 -6 0 -11 -7 -11 -15 0 -11 12
-15 43 -17 l42 -1 -45 -7 c-43 -7 -42 -7 23 -8 37 -1 67 -6 67 -12 0 -5 -12
-10 -26 -10 -14 0 -23 -4 -19 -9 3 -5 1 -12 -5 -16 -5 -3 -10 -1 -10 4 0 6 -9
11 -20 11 -19 0 -20 -2 -6 -29 15 -27 17 -28 62 -20 25 5 50 7 54 4 4 -3 13 2
20 10 10 12 16 13 27 4 11 -10 11 -15 -3 -30 -16 -18 -16 -19 9 -19 15 0 27 5
27 10 0 6 6 10 14 10 7 0 25 9 40 21 14 11 26 16 26 10 0 -6 15 -7 36 -4 24 4
39 2 44 -7 6 -10 15 -7 40 13 34 29 45 33 55 17 3 -5 13 -10 21 -10 8 0 14 5
14 10 0 6 -7 10 -15 10 -24 0 -35 32 -19 54 11 16 18 17 38 8 16 -7 27 -7 34
0 11 11 72 1 72 -12 0 -5 8 -11 19 -15 10 -3 18 -13 17 -23 -1 -12 7 -17 27
-17 15 1 27 -3 27 -7 0 -13 48 -9 53 5 4 8 8 8 14 2 4 -5 17 -10 28 -10 11 0
20 -6 19 -12 -1 -7 -2 -22 -2 -33 -2 -22 -22 -28 -22 -6 0 7 -6 19 -14 25 -10
9 -17 6 -29 -12 -19 -30 -11 -42 32 -50 18 -4 50 -17 70 -29 l36 -23 -30 -6
c-16 -4 31 -6 105 -6 74 0 111 2 83 4 -29 2 -53 8 -53 13 0 6 8 9 18 8 40 -3
54 2 48 18 -4 11 1 18 14 21 11 3 20 10 20 15 0 6 8 1 18 -11 19 -25 57 -28
117 -12 70 19 104 14 137 -19 29 -30 88 -55 74 -32 -4 8 -2 10 7 6 8 -3 17
-14 20 -25 6 -24 -24 -26 -47 -3 -9 8 -16 12 -16 7 0 -16 16 -28 52 -41 33
-12 39 -11 73 13 39 26 75 33 75 14 0 -7 -9 -9 -21 -6 -13 3 -19 1 -16 -6 2
-7 20 -12 40 -12 20 -1 40 -5 44 -9 4 -5 1 -7 -8 -4 -9 4 -16 1 -16 -7 0 -7 8
-10 19 -7 19 5 24 -8 8 -24 -6 -6 -1 -10 14 -12 16 -1 26 4 29 16 2 9 3 3 2
-15 -4 -37 3 -47 22 -32 10 9 13 6 13 -15 0 -24 12 -32 43 -27 17 3 5 -17 -14
-22 -12 -3 -18 -10 -14 -17 4 -6 16 -8 28 -5 15 4 18 3 9 -3 -16 -11 -5 -42
14 -42 8 0 14 -7 14 -15 0 -8 4 -15 10 -15 5 0 16 -13 25 -30 12 -23 13 -34 3
-55 -6 -14 -17 -25 -23 -25 -7 0 -18 -7 -26 -16 -10 -13 -10 -17 2 -26 8 -5
10 -11 4 -14 -15 -6 -6 -84 10 -84 7 0 15 7 19 15 6 18 -2 45 -15 45 -5 0 -9
5 -9 10 0 6 11 10 25 10 19 0 25 -5 26 -22 0 -13 1 -41 3 -63 2 -48 -8 -65
-34 -58 -23 6 -27 -12 -5 -21 21 -8 19 -23 -4 -36 -30 -15 -67 3 -74 37 -11
47 -20 55 -61 48 -22 -5 -36 -13 -36 -22 0 -12 -7 -14 -30 -9 -17 3 -30 1 -30
-4 0 -14 46 -12 70 2 23 14 70 -6 70 -30 0 -13 -2 -13 -17 0 -14 13 -28 14
-68 8 -70 -12 -75 -12 -75 5 0 8 -4 15 -10 15 -5 0 -10 -7 -10 -16 0 -9 17
-22 40 -31 23 -9 39 -21 37 -27 -7 -17 9 -51 23 -51 7 0 15 -6 18 -12 2 -7 -1
-13 -7 -13 -17 0 -13 -40 4 -41 41 -4 65 -19 65 -43 -1 -20 -1 -20 -15 -2 -7
10 -18 15 -23 12 -15 -9 -12 -64 4 -70 8 -3 14 -14 14 -23 0 -23 34 -53 60
-53 11 0 20 -5 20 -11 0 -8 -13 -9 -42 -4 -59 11 -142 8 -146 -4 -5 -15 -40
-14 -101 5 -54 16 -83 12 -40 -5 18 -7 19 -10 6 -10 -9 -1 -25 -5 -35 -11 -9
-5 -48 -12 -86 -15 -47 -5 -65 -10 -55 -16 9 -6 -2 -7 -31 -4 l-45 6 28 -16
c34 -20 35 -29 1 -21 -21 6 -25 4 -21 -8 5 -11 -4 -14 -39 -14 -24 0 -42 3
-39 8 3 4 -19 2 -47 -6 -29 -8 -68 -16 -87 -19 -19 -2 -41 -10 -50 -18 -9 -7
-29 -19 -46 -27 -16 -8 -36 -23 -44 -33 -7 -10 -20 -16 -28 -13 -9 4 -17 -1
-20 -14 -4 -15 -11 -19 -24 -15 -17 6 -18 2 -14 -45 3 -28 0 -70 -7 -93 -6
-23 -11 -47 -9 -54 1 -6 -3 -14 -9 -18 -5 -3 -10 -15 -10 -25 0 -11 -10 -28
-22 -39 -18 -17 -20 -25 -11 -44 9 -19 8 -28 -3 -39 -12 -12 -12 -22 1 -73 11
-40 12 -61 5 -63 -13 -5 -13 -39 -1 -47 16 -9 40 -65 35 -79 -3 -7 2 -19 11
-26 19 -16 20 -40 0 -40 -17 0 -20 -16 -4 -26 6 -3 9 -15 6 -25 -3 -10 0 -20
6 -22 6 -2 12 -16 13 -33 2 -16 7 -53 12 -82 6 -32 5 -55 0 -58 -5 -4 0 -13
12 -21 13 -9 18 -18 12 -22 -16 -10 -19 -271 -4 -298 7 -13 17 -23 21 -23 5 0
7 -10 3 -22 -3 -14 -2 -19 6 -14 7 4 12 3 12 -3 0 -5 7 -16 15 -25 14 -14 14
-17 -5 -36 -11 -11 -20 -24 -20 -29 0 -5 -11 -12 -25 -15 -14 -4 -25 -11 -25
-17 0 -6 -4 -8 -9 -4 -5 3 -31 -16 -57 -42 l-47 -48 -114 2 c-112 1 -115 2
-141 31 -57 61 -82 98 -82 121 0 18 -3 22 -11 14 -5 -5 -21 -8 -34 -5 -19 3
-24 10 -23 36 0 36 25 97 44 109 8 4 14 16 14 26 0 9 8 26 18 37 45 51 83 105
78 112 -3 5 4 15 15 22 10 8 19 22 19 31 0 9 7 22 16 30 8 7 13 20 11 30 -3
12 3 19 19 23 18 5 23 12 21 35 -1 16 -5 27 -9 24 -5 -2 -8 7 -8 21 0 18 -6
26 -22 29 -16 3 -12 5 12 6 34 1 34 1 12 17 -33 23 -54 70 -47 105 4 16 10 27
14 25 4 -3 13 -1 21 5 11 6 8 9 -12 9 -25 0 -27 3 -22 28 3 15 7 41 8 57 4 44
26 95 42 95 15 0 16 5 8 37 -3 12 -13 24 -23 26 -11 3 -9 5 7 6 29 1 28 15 -3
35 -28 18 -33 36 -10 36 11 0 15 11 15 40 0 35 -3 40 -23 40 -29 0 -90 61 -85
86 2 14 -3 19 -20 18 -18 0 -21 3 -16 20 3 14 2 17 -3 9 -14 -20 -64 6 -57 29
3 9 6 43 6 75 2 52 -1 61 -30 93 -18 19 -32 38 -32 42 0 4 -11 19 -25 34 -20
21 -36 27 -77 30 -126 8 -186 19 -229 41 -26 12 -54 23 -62 23 -9 0 -19 5 -23
11 -4 8 -28 10 -70 6 -39 -4 -64 -2 -64 3 0 6 7 10 15 10 8 0 14 4 12 9 -1 5
7 17 18 25 21 17 8 17 -142 1 -24 -3 -43 -2 -43 1 0 3 14 17 30 31 31 26 39
45 18 42 -28 -4 -101 15 -121 32 -22 18 -22 18 31 19 56 0 75 17 52 44 -9 12
-5 16 24 25 20 5 43 16 52 25 8 9 24 16 34 16 21 0 32 43 19 77 -7 19 -5 25 9
30 37 14 43 49 10 63 -13 5 -17 9 -10 9 6 1 12 7 12 15 0 9 -7 12 -20 9 -11
-3 -18 -9 -15 -13 3 -4 -2 -13 -11 -20 -11 -10 -28 -11 -72 -3 -32 6 -58 7
-60 2 -2 -5 -10 -9 -18 -9 -8 0 -11 6 -8 15 7 17 -4 19 -26 5 -13 -9 -13 -11
0 -20 17 -11 10 -13 -14 -4 -9 3 -16 12 -16 20 0 17 -5 17 -32 3 -16 -9 -24
-7 -36 5 -11 10 -12 16 -4 16 7 0 12 9 12 20 0 18 -3 19 -20 8 -15 -10 -22
-10 -32 0 -9 9 -7 16 7 32 18 20 18 20 -10 20 -22 0 -26 4 -22 20 3 11 1 22
-4 25 -7 5 -7 37 1 125 0 2 5 -1 12 -8 23 -23 27 -12 23 53 -2 38 0 65 5 65 6
0 10 9 10 20 0 13 9 22 28 26 33 9 51 31 52 64 1 19 10 30 43 45 27 13 43 28
45 42 3 22 55 48 74 37 6 -4 20 5 32 19 25 29 106 45 106 21 0 -8 5 -14 10
-14 6 0 10 9 10 20 0 11 5 20 10 20 6 0 10 -4 10 -10 0 -5 20 -10 45 -10 25 0
45 3 45 8 0 4 -18 6 -40 4 -25 -3 -40 0 -40 7 0 6 7 11 15 11 8 0 12 6 9 14
-7 20 14 30 61 31 22 0 40 5 40 10 0 6 -4 9 -8 7 -5 -1 -6 2 -2 8 3 5 1 10 -6
10 -6 0 -1 9 12 20 29 24 27 23 45 5z m-515 -1456 c19 -1 44 1 57 5 16 5 22 3
22 -7 0 -12 12 -15 54 -13 45 2 55 -1 59 -16 6 -21 38 -24 70 -6 20 10 21 10
8 -5 -12 -15 -10 -17 17 -17 17 0 33 -4 36 -9 10 -15 -12 -61 -29 -61 -8 0
-15 -4 -15 -10 0 -5 6 -10 14 -10 19 0 26 -33 10 -47 -6 -7 -56 -15 -111 -18
-54 -3 -108 -8 -120 -10 -33 -7 -56 4 -42 21 9 11 7 14 -10 14 -13 0 -21 6
-21 18 0 10 -8 18 -17 18 -10 1 -27 5 -37 9 -16 7 -18 5 -13 -8 5 -13 1 -17
-18 -17 -15 0 -25 6 -25 14 0 8 -5 16 -11 18 -17 6 -1 48 19 49 15 1 15 2 0 6
-27 7 -22 19 14 36 l32 16 -29 13 -29 13 34 6 c19 3 38 4 41 2 3 -1 21 -3 40
-4z m2262 -65 c9 -3 13 -13 10 -25 -5 -19 15 -27 30 -12 13 12 57 12 64 0 17
-27 66 -48 118 -50 30 -1 55 -6 55 -10 0 -5 14 -6 31 -2 20 5 29 4 25 -3 -9
-15 4 -42 20 -42 10 0 14 -13 14 -45 0 -50 -6 -57 -20 -22 -6 16 -9 18 -9 5
-1 -11 -6 -15 -16 -12 -10 4 -13 2 -10 -7 8 -21 -41 -40 -71 -28 -32 11 -37
11 -29 -1 3 -5 0 -7 -9 -4 -8 3 -12 12 -9 20 3 8 -1 14 -10 14 -8 0 -17 -6
-20 -12 -2 -7 -8 -9 -13 -5 -5 4 -2 12 6 17 8 5 11 12 7 17 -4 4 -17 2 -28 -5
-36 -23 -86 -3 -80 31 0 4 -3 7 -9 7 -14 0 -13 -23 2 -38 14 -14 17 -13 -49
-18 -30 -3 -90 4 -142 15 -50 11 -118 23 -153 27 -81 9 -105 21 -60 30 31 6
55 24 33 24 -6 0 -11 5 -11 10 0 6 11 10 25 10 14 0 25 5 25 10 0 6 7 10 15
10 8 0 23 9 32 20 10 11 24 20 33 20 8 0 21 9 28 21 10 16 16 18 27 9 15 -12
39 -4 30 10 -3 4 4 6 15 3 11 -3 20 0 20 6 0 11 57 15 83 5z m-238 -595 c173
5 250 2 253 -8 3 -8 -4 -10 -20 -6 -16 4 -31 -1 -47 -14 -13 -12 -33 -22 -45
-22 -28 -2 67 -16 181 -28 50 -5 102 -15 115 -22 41 -24 93 -39 111 -33 12 4
16 0 15 -13 -2 -10 1 -18 7 -18 5 0 9 6 7 13 -2 6 2 12 8 12 5 0 10 -13 10
-30 0 -19 5 -30 14 -30 7 0 19 -6 26 -14 6 -8 18 -12 26 -9 9 3 14 -1 14 -12
0 -9 17 -32 37 -50 21 -19 34 -37 30 -41 -5 -5 -11 -4 -15 2 -11 17 -52 24
-52 9 0 -7 11 -16 25 -19 16 -4 22 -11 19 -21 -5 -11 -2 -13 12 -8 11 4 15 3
11 -4 -10 -16 19 -36 41 -29 17 6 20 1 24 -29 2 -19 -2 -49 -9 -66 -7 -17 -13
-43 -13 -57 0 -17 -14 -38 -41 -64 -23 -21 -39 -42 -35 -45 3 -3 1 -12 -5 -20
-7 -7 -13 -29 -15 -48 -2 -27 2 -39 16 -48 25 -15 26 -27 3 -27 -17 -1 -17 -1
0 -14 21 -16 22 -32 2 -40 -10 -3 -15 -19 -15 -46 0 -51 17 -53 23 -2 3 25 4
22 2 -10 -1 -26 2 -53 6 -60 6 -9 9 -6 9 10 0 12 4 22 9 22 10 0 23 -162 15
-184 -3 -9 -12 -16 -20 -16 -8 0 -14 -9 -14 -20 0 -11 5 -20 10 -20 6 0 10 8
10 17 0 16 1 16 18 0 16 -17 16 -19 -10 -42 -33 -28 -36 -65 -8 -83 20 -12 28
-52 10 -52 -5 0 -16 12 -23 26 -10 20 -16 23 -22 14 -5 -9 1 -21 19 -35 26
-20 26 -23 12 -50 -10 -18 -12 -32 -5 -35 5 -4 1 -14 -11 -25 -11 -10 -20 -24
-20 -32 0 -16 -16 -17 -24 0 -3 6 -3 2 0 -10 3 -13 1 -23 -5 -23 -15 0 -14
-27 2 -33 8 -3 6 -10 -8 -26 -18 -21 -19 -24 -3 -51 13 -23 13 -28 2 -23 -8 3
-14 0 -14 -6 0 -6 -6 -8 -14 -5 -9 4 -18 -9 -27 -40 -7 -24 -15 -44 -18 -44
-23 2 -31 -6 -31 -31 0 -31 -24 -59 -35 -41 -15 24 -27 8 -22 -30 3 -27 1 -43
-9 -51 -12 -10 -13 -9 -8 5 3 9 2 16 -3 16 -5 0 -15 -17 -22 -37 -8 -21 -22
-46 -32 -56 -11 -10 -19 -26 -19 -35 0 -28 -39 -25 -46 3 -7 27 -31 51 -41 41
-4 -4 1 -20 10 -35 22 -37 23 -91 2 -91 -9 0 -15 9 -15 24 0 13 -3 32 -6 41
-9 22 -23 0 -24 -35 -1 -17 -13 -33 -40 -52 l-39 -27 -16 21 c-21 31 -40 12
-26 -25 6 -15 7 -27 2 -27 -5 0 -4 -13 1 -28 11 -28 7 -64 -11 -90 -7 -12 -14
-11 -39 2 -38 19 -42 20 -42 3 0 -8 10 -19 23 -25 12 -6 17 -11 11 -11 -5 -1
-25 10 -44 24 -41 31 -50 31 -43 4 5 -19 4 -20 -16 -9 -22 11 -22 11 -6 -14
21 -32 12 -46 -30 -46 -28 0 -32 3 -28 20 3 12 14 20 27 21 14 1 16 3 5 6 -11
3 -15 12 -11 28 4 22 1 25 -23 25 -20 0 -26 4 -21 15 3 8 1 15 -4 15 -14 0
-23 -46 -16 -83 4 -17 7 -42 8 -54 0 -12 6 -24 14 -27 8 -3 14 -11 14 -17 0
-8 -7 -6 -18 4 -21 19 -42 22 -42 6 0 -6 -6 -9 -12 -6 -7 2 -13 9 -13 15 0 5
-3 14 -7 18 -5 4 -8 3 -8 -3 0 -6 -10 -13 -22 -17 -35 -9 -5 -31 42 -31 35 0
40 -2 40 -23 0 -30 -18 -64 -30 -57 -5 3 -7 11 -5 18 3 7 1 18 -4 26 -8 12
-13 12 -35 -2 -14 -9 -36 -18 -48 -18 l-23 -2 23 -4 c32 -6 31 -50 -3 -59 -28
-7 -55 0 -55 16 0 5 10 10 22 10 21 0 21 1 6 17 -14 13 -20 14 -32 3 -9 -7
-16 -18 -16 -25 0 -7 -12 -17 -27 -23 -16 -5 -37 -18 -48 -28 -25 -23 -61 -29
-81 -14 -12 10 -14 7 -14 -19 0 -17 -5 -31 -11 -31 -6 0 -9 9 -6 20 4 16 0 20
-20 20 -20 0 -24 -4 -20 -20 3 -11 1 -20 -4 -20 -5 0 -9 -7 -9 -16 0 -8 -5
-12 -10 -9 -6 4 -8 15 -5 26 7 21 5 22 -19 13 -9 -3 -16 -15 -16 -25 0 -12 -7
-19 -20 -19 -21 0 -27 -15 -10 -25 5 -3 7 -12 4 -20 -5 -11 -9 -12 -19 -2 -7
7 -11 14 -9 16 2 3 -3 15 -11 27 -8 13 -12 30 -9 38 4 12 0 16 -15 16 -27 0
-38 -27 -18 -43 20 -16 31 -54 17 -62 -5 -3 -10 1 -10 9 0 20 -45 50 -61 41
-8 -5 -9 -1 -4 15 5 16 3 21 -6 18 -15 -5 -26 -24 -34 -60 -3 -16 -10 -28 -16
-28 -6 0 -9 7 -6 15 4 8 2 17 -2 20 -13 7 -42 -60 -35 -79 3 -9 1 -16 -5 -16
-6 0 -16 11 -21 25 -5 14 -15 25 -21 25 -8 0 -8 -4 1 -15 7 -9 10 -19 6 -23
-4 -4 -16 3 -27 16 -23 29 -42 19 -37 -19 3 -16 1 -29 -4 -29 -4 0 -8 6 -9 13
0 8 -2 8 -5 1 -3 -6 -16 -9 -30 -6 -22 4 -24 8 -18 35 5 23 3 28 -7 21 -8 -5
-18 -9 -23 -9 -4 0 -16 -19 -25 -43 -18 -46 -38 -53 -33 -12 2 22 1 23 -8 7
-6 -9 -16 -15 -22 -11 -7 4 -8 -1 -3 -16 6 -18 4 -22 -8 -17 -9 3 -21 -1 -28
-9 -10 -12 -9 -13 5 -8 12 4 16 0 16 -16 0 -19 -1 -20 -16 -6 -8 9 -20 16 -25
16 -6 0 -1 13 11 29 13 19 17 32 10 36 -7 5 -4 19 10 42 25 43 19 55 -11 22
-11 -13 -18 -18 -14 -11 8 15 -3 52 -15 52 -5 0 -10 -8 -13 -17 -4 -17 -4 -17
-12 1 -5 12 -3 21 6 26 16 10 12 15 -19 25 -19 5 -23 3 -20 -11 4 -24 -25 -29
-46 -9 -9 10 -23 14 -31 11 -11 -4 -15 2 -15 22 0 21 -2 24 -10 12 -8 -13 -10
-13 -10 -1 0 11 -4 9 -14 -5 -14 -18 -15 -18 -21 -1 -7 17 -8 17 -22 0 -13
-16 -14 -16 -9 -1 2 9 -2 22 -11 30 -9 7 -22 28 -30 46 -10 24 -20 32 -38 32
-18 0 -23 -4 -19 -15 4 -8 10 -15 15 -15 5 0 9 -4 9 -10 0 -16 -15 -12 -44 11
-21 16 -24 24 -16 35 14 16 5 34 -18 34 -10 1 -4 8 16 18 l33 18 -25 14 c-15
7 -26 17 -26 21 0 4 -13 10 -28 14 -20 4 -28 12 -30 30 -1 21 2 24 28 22 31
-2 43 -17 14 -17 -13 0 -14 -3 -5 -14 10 -11 17 -9 41 16 29 29 33 61 5 38
-16 -14 -35 -5 -35 16 0 8 -9 14 -20 14 -13 0 -18 -5 -14 -15 8 -20 -15 -19
-41 2 l-20 16 20 -7 c15 -5 17 -4 9 4 -12 12 -93 -5 -105 -23 -4 -6 -14 -5
-25 2 -16 9 -16 10 -3 11 9 0 20 11 23 25 7 27 -2 75 -14 75 -14 0 -42 -39
-37 -52 4 -11 -25 -15 -62 -9 -3 1 0 6 7 13 8 8 9 15 1 25 -9 10 -5 12 22 7
l34 -7 -30 32 c-16 17 -34 30 -40 28 -12 -5 -15 -48 -3 -64 5 -6 5 -14 -1 -17
-13 -8 -24 11 -17 29 3 8 1 17 -4 20 -6 4 -10 19 -10 34 0 40 -60 96 -94 87
-17 -4 -26 -13 -26 -26 0 -11 3 -19 8 -19 26 4 42 -3 42 -21 0 -11 -6 -20 -14
-20 -8 0 -16 -7 -20 -15 -4 -12 -9 -11 -29 8 -13 12 -22 25 -20 29 2 3 -3 9
-9 12 -7 4 -3 4 10 2 15 -3 22 0 19 7 -2 7 -16 14 -32 17 -26 5 -48 35 -38 53
2 4 -8 7 -24 7 -20 0 -24 3 -14 9 18 12 5 31 -22 33 -12 0 -2 4 22 7 55 7 64
27 19 40 -18 5 -25 10 -15 10 10 1 17 7 14 14 -2 7 -19 11 -42 10 -29 -2 -36
1 -32 12 4 9 1 12 -9 8 -10 -4 -12 -9 -5 -16 11 -11 4 -37 -10 -37 -5 0 -9 7
-9 15 0 9 -7 18 -15 21 -13 5 -12 9 5 24 11 9 20 22 20 29 0 6 5 11 12 11 9 0
9 3 0 12 -10 10 -14 10 -21 0 -6 -10 -16 -6 -40 19 -30 29 -31 33 -16 49 12
13 13 20 5 25 -9 5 -9 10 -1 18 17 17 13 27 -14 37 -14 5 -25 17 -25 26 0 12
-6 14 -30 9 -25 -6 -30 -4 -30 13 0 13 9 22 25 26 28 7 35 29 8 24 -10 -2 -17
3 -15 10 1 6 -4 12 -10 12 -9 0 -8 4 2 10 11 7 12 10 2 10 -8 0 -12 6 -9 13 2
6 -4 21 -14 32 -21 24 -36 75 -21 75 15 0 7 55 -12 82 -9 13 -13 31 -9 46 4
18 3 23 -6 18 -13 -8 -6 33 10 66 5 9 9 34 9 55 0 35 23 86 32 73 26 -37 47
-90 37 -95 -20 -13 8 -27 40 -20 27 6 31 11 31 38 0 18 3 43 5 57 5 22 4 22
-4 5 -8 -17 -10 -15 -10 15 -1 24 2 31 8 21 5 -8 14 -10 21 -6 10 6 10 10 -2
19 -8 6 -17 19 -21 29 -3 9 -14 17 -24 17 -15 0 -15 -2 3 -14 10 -8 15 -18 11
-23 -11 -10 -39 26 -31 39 4 5 -3 16 -15 24 -12 8 -21 22 -21 29 0 8 -11 17
-25 21 -33 8 -26 29 8 29 21 -1 27 4 27 20 0 15 -2 17 -9 6 -7 -11 -10 -9 -16
8 -3 11 -11 21 -16 21 -5 0 -9 14 -9 30 0 23 5 30 19 30 10 0 21 7 24 14 4 11
1 13 -10 9 -14 -5 -15 -1 -8 28 5 19 8 63 8 99 -1 36 1 57 4 48 11 -41 20 -13
19 59 -1 50 -6 78 -14 81 -18 6 -15 20 4 18 9 0 19 4 21 10 5 14 -39 26 -61
18 -9 -3 -16 -1 -16 5 0 6 5 11 10 11 6 0 10 5 10 11 0 6 7 17 15 25 17 17 21
39 5 29 -5 -3 -10 -1 -10 5 0 6 -4 9 -9 6 -5 -3 -14 1 -21 9 -10 13 -9 15 10
15 21 0 22 3 18 55 -4 41 -1 55 9 55 7 0 13 10 13 22 0 17 3 19 12 10 8 -8 17
-6 34 11 13 12 24 25 24 30 0 12 -28 8 -32 -5 -4 -12 -78 -21 -78 -10 0 10 33
42 44 42 5 0 21 11 35 24 46 42 104 57 212 55 134 -2 133 -16 -3 -34 -91 -12
-60 -25 59 -24 65 0 134 -4 153 -9 l35 -9 -49 -8 c-37 -6 -57 -4 -82 9 -42 20
-44 20 -44 1 0 -8 7 -15 15 -15 8 0 15 -7 15 -15 0 -8 -7 -15 -15 -15 -13 0
-13 -3 2 -18 23 -24 48 -34 98 -39 56 -7 94 -6 135 2 19 3 57 7 84 8 52 2 73
20 34 30 -21 6 -21 7 -3 27 12 14 31 20 58 20 31 0 38 3 33 15 -4 12 6 15 57
17 34 1 71 0 82 -1 107 -13 117 -13 128 4 10 12 18 14 37 6 18 -7 20 -10 8
-10 -10 -1 -18 -8 -18 -17 0 -9 -11 -38 -25 -66 -14 -27 -25 -60 -25 -73 0
-13 -4 -27 -10 -30 -18 -11 -11 -68 12 -92 18 -19 20 -27 11 -42 -8 -13 -9
-21 -1 -29 9 -9 7 -17 -5 -30 -9 -10 -17 -29 -17 -43 -1 -15 -18 -41 -46 -69
-25 -25 -54 -60 -65 -77 -20 -31 -38 -41 -52 -27 -3 4 -2 15 4 26 17 32 1 34
-31 3 -19 -18 -26 -31 -19 -36 6 -4 -1 -12 -19 -20 -21 -9 -27 -16 -19 -21 19
-12 47 -9 63 7 18 17 42 19 64 5 13 -9 13 -11 0 -21 -11 -8 -12 -12 -2 -16 6
-2 12 -14 12 -24 0 -12 -4 -17 -11 -14 -7 5 -8 -4 -4 -28 6 -28 3 -37 -12 -46
-14 -8 -15 -11 -3 -12 8 0 5 -4 -8 -7 -35 -10 -31 -27 6 -30 18 -2 30 -7 27
-12 -3 -5 -12 -7 -20 -3 -9 3 -15 -1 -15 -11 0 -24 -9 -20 -51 25 -33 35 -41
39 -59 29 -25 -13 -18 -30 9 -23 16 4 19 0 17 -20 -3 -33 -25 -59 -43 -53 -7
3 -21 -4 -32 -15 -14 -15 -26 -19 -42 -14 -20 7 -21 8 -5 17 16 9 15 11 -9 24
-54 28 -86 16 -91 -34 -4 -33 -23 -54 -45 -47 -13 4 -19 1 -19 -9 0 -8 -8 -20
-18 -25 -12 -7 -22 -32 -31 -85 -8 -42 -18 -79 -22 -82 -5 -3 -9 -15 -9 -27 0
-18 2 -19 11 -7 14 20 2 -25 -17 -62 -18 -34 -17 -44 2 -40 8 2 14 -2 14 -8 0
-5 11 -10 24 -10 19 0 26 7 31 30 8 35 7 35 45 15 18 -9 30 -24 30 -35 0 -10
5 -22 12 -26 7 -5 3 -10 -12 -16 l-23 -9 27 -28 c16 -16 25 -34 22 -39 -4 -6
-2 -14 4 -17 6 -4 10 -21 8 -38 -3 -28 0 -32 22 -34 23 -2 23 -2 5 6 -18 9
-18 10 6 10 36 1 51 -19 34 -42 -7 -10 -17 -17 -22 -15 -4 2 -9 -11 -11 -29
-2 -24 2 -35 20 -46 35 -22 78 -30 79 -15 0 7 4 4 9 -7 13 -29 12 -35 -5 -35
-8 0 -15 -7 -15 -15 0 -8 -5 -15 -11 -15 -5 0 -8 3 -6 8 3 4 1 16 -4 27 -6 13
-7 1 -4 -35 9 -104 13 -117 39 -145 17 -18 23 -32 17 -39 -5 -6 -11 -24 -13
-41 l-3 -30 67 1 c63 2 67 0 65 -20 -1 -11 -9 -26 -17 -33 -20 -16 0 -16 21 0
28 21 33 54 9 67 -16 9 -18 15 -10 30 7 13 7 20 1 20 -6 0 -8 7 -4 16 5 14 3
15 -16 4 -20 -10 -22 -9 -21 7 4 30 0 43 -10 43 -15 0 -55 38 -48 45 3 4 15 7
27 8 23 1 27 17 10 34 -7 7 -3 9 15 6 18 -4 26 -12 26 -25 0 -26 32 -66 48
-60 7 2 12 -5 12 -17 0 -12 6 -21 16 -21 8 0 12 -5 9 -10 -3 -6 2 -13 11 -17
10 -4 19 -2 22 5 5 17 32 15 32 -2 0 -17 38 -28 59 -17 19 10 42 3 56 -15 15
-19 190 -31 332 -21 20 1 46 34 34 42 -6 3 -11 -1 -11 -9 0 -19 -28 -21 -49
-3 -9 8 -36 19 -59 26 -24 7 -42 14 -40 17 2 2 19 -1 38 -6 40 -11 80 -3 80
16 0 10 6 11 24 4 13 -5 33 -6 44 -4 23 7 40 -25 20 -38 -10 -6 -10 -8 2 -8
12 0 12 -2 1 -9 -23 -15 5 -22 91 -22 108 0 168 7 181 20 6 6 21 11 32 11 12
0 25 3 29 7 4 4 38 20 74 34 37 15 67 31 67 35 0 5 3 8 8 6 4 -1 7 2 7 8 0 5
19 10 42 10 33 0 39 3 30 12 -15 15 -16 32 -2 23 6 -3 13 1 16 9 3 9 15 16 25
16 10 0 19 6 19 13 1 17 47 67 63 67 7 0 18 5 24 11 7 7 12 6 16 -5 5 -12 0
-16 -18 -16 -17 0 -30 -11 -47 -42 -18 -32 -30 -42 -45 -41 -24 3 -38 -31 -23
-56 7 -14 10 -12 18 8 6 18 17 24 48 26 21 1 45 -2 52 -8 9 -7 19 -3 37 13
l25 24 -27 11 c-16 7 -36 10 -45 7 -12 -3 -18 1 -18 12 0 16 14 20 58 16 16
-1 22 4 22 19 0 12 -4 21 -10 21 -5 0 -10 18 -10 40 0 22 5 40 10 40 6 0 10 9
10 19 0 10 7 22 16 25 24 9 26 8 19 -14 -5 -15 -3 -18 9 -14 18 7 21 20 7 29
-6 3 -9 14 -8 25 1 15 11 22 39 27 40 6 54 33 18 33 -18 0 -19 5 -15 51 3 28
7 55 10 59 3 5 1 10 -4 12 -5 1 -3 12 5 22 14 19 14 19 15 -5 1 -13 1 -28 0
-32 -1 -5 3 -6 9 -2 5 3 10 1 10 -4 0 -6 9 -11 20 -11 14 0 20 7 20 23 0 12 4
18 8 12 4 -5 17 -11 30 -12 18 -2 21 0 14 15 -4 9 -8 31 -7 47 1 17 -1 35 -5
40 -4 6 -13 38 -21 73 -10 48 -17 62 -31 62 -11 0 -18 7 -18 20 0 13 -9 22
-25 26 -14 3 -22 10 -19 16 3 5 13 7 21 4 8 -3 11 -1 8 4 -8 13 -45 13 -45 -1
0 -5 -5 -7 -10 -4 -6 4 -8 11 -5 16 4 5 -5 9 -19 9 -14 0 -28 5 -31 10 -3 6
-18 10 -33 10 -59 1 -98 80 -44 88 32 5 27 22 -6 22 -15 0 -33 5 -39 11 -16
16 -32 3 -26 -21 3 -11 1 -20 -4 -20 -12 0 -53 30 -53 38 0 4 18 20 40 36 22
17 40 37 39 45 0 10 -2 11 -5 4 -11 -25 -33 -2 -27 28 3 15 2 36 -2 46 -4 10
-9 31 -10 47 -2 15 -12 40 -22 55 -11 14 -23 37 -26 52 -4 14 -20 38 -37 55
-47 45 -62 133 -27 156 11 7 16 153 5 171 -3 6 -2 19 3 29 7 13 6 20 -3 23
-14 6 -22 45 -10 45 4 -1 18 -7 32 -15 28 -16 90 -20 90 -6 0 5 -15 22 -32 36
-18 15 -27 24 -20 20 7 -4 12 0 12 11 0 14 7 16 51 11 28 -4 56 -10 63 -15 6
-5 31 -12 56 -16 39 -5 43 -4 28 8 -24 18 -13 25 30 20 32 -4 29 -2 -22 19
-44 17 -55 25 -42 30 9 4 16 15 14 24 -2 14 3 17 25 15 15 -1 27 1 26 5 -3 21
3 25 29 19 15 -4 36 -7 47 -7z m-2983 -199 c-37 -31 -38 -61 -2 -80 21 -11 16
-50 -6 -50 -7 0 -15 -4 -18 -9 -8 -12 4 -41 16 -41 12 0 42 -29 36 -36 -3 -2
-11 2 -18 11 -7 8 -16 15 -21 15 -14 0 -11 -28 4 -33 9 -3 8 -9 -4 -23 -9 -10
-18 -26 -21 -34 -3 -10 -15 -14 -41 -12 -27 3 -37 0 -37 -11 0 -8 -9 -17 -20
-20 -15 -4 -20 0 -20 15 0 10 -4 16 -10 13 -6 -4 -10 9 -9 32 1 34 2 35 8 11
5 -21 9 -25 21 -18 8 5 10 10 4 10 -7 0 -14 20 -16 45 -2 25 0 45 3 45 12 0
16 95 5 102 -7 5 -4 8 7 8 19 0 37 37 37 74 0 12 6 23 13 24 6 1 30 5 52 10
30 7 44 5 55 -5 13 -13 11 -18 -18 -43z m4196 -32 c6 -18 13 -44 16 -58 3 -14
10 -45 15 -70 20 -90 13 -171 -28 -333 -17 -71 -60 -111 -75 -71 -11 28 -6 50
13 68 36 33 37 179 1 189 -20 5 -33 54 -16 60 8 3 8 8 0 18 -6 8 -14 38 -16
68 -4 40 -11 59 -27 72 -11 9 -21 22 -21 28 0 6 -7 11 -15 11 -8 0 -15 5 -15
11 0 6 7 8 16 5 9 -4 22 -2 29 4 7 6 23 13 35 15 13 2 25 7 28 10 3 3 15 5 27
5 15 0 24 -10 33 -32z m-1658 -473 c5 -3 15 -24 21 -46 7 -22 17 -38 24 -35
18 7 37 -33 30 -65 -8 -36 -45 -48 -172 -51 -79 -3 -93 -1 -103 15 -11 19 -5
26 58 78 7 6 11 18 7 27 -9 23 72 93 102 88 12 -3 27 -7 33 -11z m-2498 -57
c10 -12 18 -29 18 -39 0 -10 12 -25 28 -33 l27 -15 -47 -1 c-46 0 -48 -1 -47
-27 0 -16 4 -36 8 -46 6 -17 8 -17 26 3 20 22 20 22 -4 41 l-23 19 36 0 c35 0
50 -20 26 -35 -5 -3 -10 -15 -10 -26 0 -10 -4 -19 -10 -19 -5 0 -10 -5 -10
-11 0 -12 -29 -38 -42 -39 -5 0 -8 10 -8 23 0 12 -7 44 -15 71 -11 37 -12 52
-4 63 9 10 9 12 -2 8 -14 -5 -31 24 -42 74 -6 22 -4 23 35 17 23 -4 49 -16 60
-28z m4066 -78 c4 -37 -18 -120 -31 -120 -5 0 -6 -12 -2 -27 11 -47 16 -113 7
-113 -16 0 -64 58 -58 69 4 6 2 11 -3 11 -6 0 -11 13 -11 30 0 16 -7 33 -15
37 -13 8 -12 15 6 53 44 92 58 110 82 101 15 -6 23 -18 25 -41z m-2136 -344
c-2 -9 1 -16 6 -16 5 0 12 -9 15 -19 3 -15 13 -19 36 -19 l32 1 -24 16 c-22
14 -23 17 -9 30 13 13 17 12 30 -7 8 -12 20 -22 27 -22 8 0 15 -4 17 -8 2 -5
18 -5 36 0 27 7 32 13 27 28 -4 12 -2 20 4 20 6 0 11 -4 11 -8 0 -5 12 -14 26
-21 20 -9 30 -9 40 0 11 9 14 8 14 -7 0 -12 17 -27 46 -42 42 -21 48 -22 70
-8 22 15 24 15 34 -3 25 -48 17 -52 -85 -46 -56 3 -96 1 -100 -5 -3 -6 -28
-10 -55 -10 -40 0 -52 -4 -68 -25 -24 -30 -48 -32 -57 -5 -4 11 -10 18 -15 15
-4 -3 -10 2 -14 10 -3 8 -15 15 -26 15 -12 0 -38 11 -58 25 -20 14 -47 25 -59
25 -13 0 -23 5 -23 10 0 6 5 10 10 10 6 0 10 5 10 10 0 18 -18 11 -25 -10 -3
-11 -13 -20 -22 -20 -12 0 -14 7 -9 30 4 24 2 30 -11 30 -13 0 -14 3 -6 11 9
9 20 8 45 -4 23 -11 36 -13 45 -5 7 6 20 8 28 4 11 -4 19 3 25 20 11 27 37 28
32 0z m-337 -252 c14 -15 25 -34 25 -43 1 -16 28 -58 32 -50 2 2 12 22 23 44
17 33 25 40 50 40 25 0 33 -7 51 -43 l22 -42 20 35 21 34 78 -2 78 -2 21 -44
21 -43 16 41 c17 41 17 41 69 41 92 0 128 -10 134 -36 6 -25 24 -33 24 -12 0
21 33 48 59 48 35 0 46 -9 57 -50 l10 -35 18 35 c28 53 46 70 76 70 27 0 50
-31 50 -67 0 -13 7 -10 30 12 37 35 51 26 53 -37 1 -33 -4 -49 -20 -67 -12
-13 -26 -20 -32 -16 -6 3 -11 1 -11 -4 0 -6 -7 -11 -16 -11 -12 0 -15 6 -10
28 6 26 6 26 -9 8 -8 -11 -15 -27 -15 -36 0 -9 -5 -21 -12 -28 -17 -17 -67
-15 -74 3 -9 22 -18 18 -30 -14 -11 -27 -14 -28 -80 -28 -38 0 -82 -6 -97 -12
-16 -6 -62 -11 -102 -11 -59 0 -76 3 -83 17 -9 15 -11 15 -27 -1 -11 -10 -26
-15 -39 -12 -12 2 -54 8 -94 12 -40 3 -75 11 -78 15 -3 5 -36 9 -73 9 -60 0
-71 3 -84 23 l-16 22 -16 -23 c-22 -31 -69 -27 -73 6 -3 23 -16 29 -26 13 -7
-10 -58 12 -74 32 -16 21 -21 70 -10 120 5 26 13 47 18 47 4 0 21 -20 38 -45
l29 -45 7 52 c11 82 31 96 71 52z m1048 -1879 c-3 -13 -12 -30 -19 -36 -11 -9
-11 -15 -3 -25 18 -22 3 -47 -25 -40 -20 5 -23 3 -19 -13 3 -14 -3 -21 -28
-30 -33 -11 -89 -57 -89 -73 0 -4 3 -7 8 -5 4 1 8 -2 10 -8 2 -5 -13 -18 -33
-29 -41 -21 -35 -37 14 -38 17 -1 31 -5 31 -11 0 -5 -14 -7 -33 -3 -24 5 -38
1 -53 -12 -11 -10 -26 -16 -33 -14 -8 3 -11 0 -8 -5 4 -6 18 -10 32 -10 30 0
40 -7 30 -23 -5 -8 -11 -8 -19 -1 -7 6 -16 8 -19 4 -12 -11 -8 -23 7 -23 8 0
15 -8 15 -17 0 -10 2 -29 3 -43 3 -21 -2 -26 -25 -28 -15 -2 -25 -8 -22 -13 4
-5 -1 -9 -10 -9 -13 0 -16 6 -11 26 4 15 14 33 21 41 17 17 19 33 5 33 -6 0
-15 11 -20 25 -5 14 -16 25 -25 25 -22 0 -19 -27 5 -40 23 -13 27 -40 5 -40
-12 0 -14 -11 -11 -55 4 -60 4 -60 -22 -44 -13 8 -29 8 -62 -2 -25 -7 -53 -13
-62 -14 -9 0 -25 -7 -35 -15 -19 -16 -73 -21 -73 -7 0 15 -28 37 -52 39 -13 2
-26 7 -29 11 -3 5 -24 15 -45 22 -21 8 -33 14 -26 15 6 0 12 9 12 19 0 19 2
19 46 4 25 -8 47 -13 50 -10 9 9 -42 38 -73 41 -15 2 -28 5 -28 6 0 1 -8 3
-18 5 -51 10 -67 35 -22 35 44 0 27 34 -22 43 -31 6 -47 -6 -20 -16 6 -2 9 -8
5 -12 -4 -4 -19 3 -33 17 -13 14 -45 33 -70 43 -25 11 -45 23 -45 27 0 4 -8 8
-17 9 -11 0 -13 2 -5 6 7 3 24 -2 37 -11 13 -9 33 -16 44 -16 11 0 23 -4 26
-10 3 -5 13 -10 21 -10 12 0 12 4 -3 25 -10 13 -24 25 -31 25 -7 0 -11 4 -7 9
3 6 20 1 39 -10 45 -26 131 -37 139 -17 4 11 -3 15 -23 15 -15 0 -35 7 -44 15
-8 9 -32 16 -51 16 -36 0 -60 11 -40 19 22 8 33 19 39 40 6 18 2 24 -18 29
-14 3 -26 10 -26 15 0 9 28 1 47 -13 7 -6 17 -7 23 -3 17 11 11 -7 -7 -21 -12
-9 -14 -13 -5 -14 7 0 10 -4 7 -10 -3 -5 3 -10 14 -10 12 0 21 6 21 14 0 11
11 10 53 -7 28 -12 55 -26 58 -31 7 -9 29 0 29 12 0 9 -49 32 -68 32 -15 0
-75 39 -80 52 -2 4 -10 8 -18 8 -8 0 -14 5 -14 10 0 14 7 13 38 -9 35 -25 88
-34 103 -18 11 11 27 11 169 -5 46 -5 31 17 -16 24 -68 10 -65 17 7 17 93 1
101 2 130 22 39 27 75 34 82 15 4 -9 13 -16 21 -16 10 0 13 6 10 15 -5 12 3
15 40 15 35 0 46 -4 46 -15 0 -21 27 -30 45 -15 8 6 19 9 25 5 6 -3 10 3 10
14 0 13 5 19 14 15 7 -3 20 2 29 10 9 9 20 16 26 16 6 0 11 11 11 25 0 14 4
25 9 25 4 0 6 -11 4 -25z m-5878 -3952 c-9 -100 -25 -251 -35 -318 -5 -38 -12
-109 -16 -157 -3 -48 -14 -111 -24 -139 -11 -29 -17 -55 -15 -59 3 -4 -4 -25
-14 -46 -10 -22 -22 -54 -26 -72 -4 -18 -13 -45 -21 -60 -8 -15 -14 -35 -14
-44 0 -9 -4 -19 -9 -23 -20 -12 8 190 35 250 17 40 34 136 44 255 5 52 13 111
19 130 6 19 11 51 11 70 0 20 11 74 24 120 13 47 27 97 30 113 10 42 15 32 11
-20z"/>
<path d="M4855 8261 c-39 -21 -79 -48 -89 -60 -11 -12 -24 -21 -30 -21 -6 0
-20 -17 -31 -37 -10 -21 -33 -56 -51 -78 -32 -40 -89 -145 -86 -156 1 -4 -3
-21 -8 -38 -16 -57 7 -42 41 26 54 108 219 303 257 303 9 0 22 8 29 18 6 11
28 27 48 36 20 10 34 23 32 29 -7 24 -43 16 -112 -22z"/>
<path d="M7101 7688 c-9 -25 -27 -156 -23 -172 2 -4 -2 -13 -7 -20 -5 -6 -11
-23 -13 -38 -2 -14 -9 -32 -16 -40 -6 -8 -9 -18 -6 -21 3 -3 -1 -16 -10 -29
-17 -23 -22 -78 -8 -78 12 0 62 57 56 63 -3 3 5 42 17 88 25 97 28 112 36 195
6 65 -9 96 -26 52z"/>
<path d="M5670 4555 c0 -4 7 -20 16 -37 11 -22 13 -33 5 -41 -8 -8 -11 -5 -11
11 0 12 -6 22 -14 22 -19 0 -33 -23 -18 -28 7 -2 10 -8 6 -13 -3 -5 2 -9 10
-9 9 0 16 -4 16 -9 0 -11 -25 -21 -55 -21 -12 0 -28 -6 -34 -14 -10 -11 -6
-16 16 -24 25 -10 23 -10 -14 -5 -35 5 -43 3 -43 -11 0 -10 9 -16 25 -16 18 0
25 -5 25 -19 0 -11 6 -22 13 -24 10 -4 10 -6 0 -6 -7 -1 -13 -8 -13 -16 0 -18
76 -21 82 -3 3 8 18 7 53 -5 57 -20 88 -21 117 -6 19 10 20 9 16 -15 -4 -19
-1 -26 10 -26 10 0 13 7 9 21 -6 24 1 49 14 49 5 0 9 -11 9 -25 0 -18 5 -25
19 -25 29 0 34 17 10 34 -12 8 -18 19 -14 25 8 14 52 14 60 1 3 -5 12 -7 21
-3 13 5 13 8 -1 23 -15 17 -14 19 14 25 53 11 34 25 -36 26 -38 1 -60 3 -50 6
9 2 15 8 12 13 -7 11 -99 1 -103 -11 -2 -5 -12 -9 -23 -9 -14 0 -20 -10 -25
-40 -8 -46 -29 -53 -45 -14 -5 15 -12 24 -16 20 -3 -3 -15 1 -24 10 -17 16
-19 16 -25 0 -7 -17 -34 -22 -34 -6 0 6 7 10 15 10 21 0 19 18 -2 23 -10 3 11
5 47 6 72 1 112 16 73 27 -13 4 -23 10 -23 14 0 4 10 11 23 15 13 4 17 8 10
12 -15 6 -17 43 -3 43 6 0 10 -7 10 -15 0 -8 7 -15 15 -15 18 0 19 17 3 53
-16 33 -36 35 -48 5 -5 -13 -9 -17 -9 -9 -1 8 -7 11 -16 7 -9 -3 -18 1 -21 9
-6 14 -54 22 -54 10z"/>
<path d="M825 3312 c2 -93 -1 -114 -14 -121 -11 -7 -12 -12 -4 -23 11 -13 13
-68 3 -68 -3 0 -6 -42 -7 -93 -1 -50 -5 -117 -8 -147 -4 -30 -7 -73 -7 -95 0
-22 0 -71 0 -110 -1 -38 0 -104 0 -145 1 -41 2 -131 2 -199 1 -68 6 -135 11
-149 6 -15 14 -71 19 -127 5 -55 19 -136 30 -180 11 -44 20 -93 20 -108 0 -16
13 -58 30 -94 16 -35 30 -71 30 -79 0 -8 7 -31 15 -50 8 -20 16 -49 17 -65 1
-16 6 -29 10 -29 4 0 8 -8 8 -18 0 -10 5 -23 11 -29 7 -7 12 -20 13 -30 5 -44
33 -121 71 -196 8 -16 15 -37 15 -48 0 -20 16 -54 38 -77 6 -7 12 -29 12 -47
0 -41 29 -105 47 -105 10 0 12 -10 7 -42 -5 -27 -4 -39 3 -35 6 4 10 1 10 -6
-1 -23 16 -77 24 -77 4 0 14 -18 20 -40 7 -22 16 -40 21 -40 4 0 8 -9 8 -19 0
-11 8 -27 17 -37 12 -11 16 -30 14 -60 -2 -32 1 -44 11 -44 13 0 47 -55 44
-73 0 -5 7 -13 17 -18 9 -6 15 -14 12 -18 -2 -5 2 -14 9 -20 9 -8 13 -25 10
-46 -3 -29 -1 -33 13 -28 13 5 15 2 11 -15 -4 -12 -2 -20 3 -16 5 3 9 0 9 -5
0 -6 16 -29 36 -51 34 -37 35 -41 23 -69 -11 -25 -16 -28 -37 -20 -31 12 -32
12 -32 -5 0 -18 33 -30 59 -21 11 3 28 2 38 -3 10 -5 30 -15 46 -23 15 -7 27
-20 27 -31 0 -16 9 -18 65 -18 50 0 65 3 65 14 0 8 -4 18 -10 21 -5 3 -10 13
-10 21 0 9 -6 21 -12 28 -7 8 -20 24 -28 36 -8 12 -20 28 -26 34 -5 6 -13 18
-17 26 -4 8 -16 29 -27 45 -11 17 -31 53 -46 80 -15 28 -30 52 -35 53 -5 2 -9
10 -9 18 0 8 -9 31 -20 51 -11 21 -20 43 -20 49 0 6 -9 19 -19 28 -11 10 -23
31 -26 47 -4 16 -11 31 -16 34 -5 4 -9 19 -9 35 0 16 -8 37 -19 47 -12 12 -21
39 -26 81 -4 34 -11 62 -16 62 -5 0 -9 10 -9 23 0 12 -9 28 -19 34 -21 13 -24
52 -6 66 7 6 6 10 -3 14 -10 4 -10 8 0 21 10 12 10 16 1 19 -24 8 -13 23 17
23 41 0 38 18 -5 26 -30 5 -35 10 -35 35 0 19 -5 29 -15 29 -8 0 -15 7 -15 15
0 9 -9 33 -20 54 -10 21 -20 58 -21 82 -2 24 -7 48 -13 52 -6 5 5 6 24 3 l35
-6 -32 25 c-20 16 -30 31 -26 40 3 8 0 15 -6 15 -6 0 -8 7 -5 15 4 8 1 22 -5
29 -21 25 10 24 36 0 13 -12 42 -25 64 -29 22 -4 45 -12 52 -19 7 -7 17 -11
22 -9 6 2 18 -15 28 -37 9 -22 22 -40 28 -40 5 0 7 -5 4 -10 -6 -9 -2 -16 32
-52 24 -26 41 -37 47 -30 4 3 10 2 14 -3 12 -17 69 -45 134 -66 77 -25 107
-50 100 -85 -2 -13 -9 -27 -14 -30 -12 -7 -145 44 -170 66 -10 8 -18 20 -18
27 0 7 -6 13 -14 13 -7 0 -19 7 -26 15 -7 8 -25 21 -40 29 -25 12 -31 12 -49
-1 -26 -18 -27 -30 -3 -37 18 -6 57 -74 48 -83 -2 -3 4 -13 14 -23 12 -12 16
-27 13 -46 -3 -16 -5 -39 -5 -51 0 -13 -3 -23 -7 -23 -3 0 -15 -7 -26 -16 -17
-13 -18 -16 -5 -24 8 -5 27 -10 43 -10 28 0 37 -14 15 -23 -10 -4 -9 -8 2 -16
13 -10 13 -12 0 -21 -13 -9 -7 -14 13 -11 4 0 7 -10 7 -24 0 -14 0 -28 1 -32
0 -5 15 -22 33 -38 18 -17 37 -41 41 -55 11 -34 37 -69 53 -70 6 0 12 -11 12
-24 0 -14 5 -28 10 -31 6 -3 10 -15 10 -26 0 -12 15 -35 33 -53 40 -40 70 -93
63 -111 -3 -8 3 -17 15 -20 10 -4 19 -14 19 -24 0 -9 5 -22 12 -29 7 -7 8 -12
3 -12 -6 0 -6 -3 0 -8 17 -12 45 -69 45 -92 0 -13 10 -31 22 -41 15 -14 21
-30 20 -54 l-1 -35 79 0 c47 0 80 4 80 10 0 6 9 10 19 10 11 0 22 4 25 9 3 4
24 11 45 15 30 5 39 10 35 21 -4 8 -14 15 -23 15 -26 0 -41 20 -41 55 0 20 -3
26 -9 17 -11 -19 -96 -3 -97 18 -1 24 -15 50 -25 44 -5 -3 -9 -1 -9 5 0 5 5
11 12 13 7 3 9 12 4 23 -6 17 -9 17 -17 5 -8 -11 -9 -9 -5 11 4 18 -1 34 -14
50 -12 13 -18 29 -14 38 4 9 9 26 11 38 5 21 2 22 -25 17 -38 -8 -43 2 -30 55
8 30 8 45 0 53 -8 8 -9 5 -5 -11 3 -12 1 -21 -6 -21 -6 0 -11 6 -11 14 0 8 -8
17 -17 21 -17 6 -17 7 -1 19 16 12 16 14 -7 24 -14 6 -25 17 -26 24 0 7 -3 24
-6 38 -2 14 -5 41 -5 60 -1 19 -7 40 -13 45 -16 13 -38 462 -37 745 1 113 -3
239 -7 280 l-8 75 -2 -75 c-2 -124 -13 -211 -25 -207 -6 2 -18 26 -28 53 -9
27 -28 81 -43 119 -36 97 -50 141 -64 205 -7 30 -16 73 -21 95 -15 62 -30 190
-30 250 0 39 -5 59 -18 72 -22 22 -65 87 -97 148 -60 112 -66 121 -60 90 4
-16 18 -47 31 -68 14 -22 23 -45 20 -53 -4 -10 -2 -12 6 -8 7 5 9 2 6 -8 -4
-8 9 -33 29 -59 44 -55 52 -77 59 -153 2 -33 7 -72 9 -86 2 -14 7 -54 10 -90
4 -35 11 -73 17 -84 11 -19 13 -29 26 -112 4 -28 16 -63 25 -77 15 -23 27 -62
29 -94 1 -7 5 -13 9 -13 4 0 11 -21 15 -47 4 -27 18 -70 31 -98 28 -58 47
-204 29 -222 -7 -7 -94 64 -110 89 -13 21 -1 35 17 20 15 -13 57 -5 57 11 0
15 -49 77 -88 111 -37 32 -72 94 -72 126 0 11 -4 20 -8 20 -10 0 -42 70 -42
91 0 8 -7 24 -15 35 -8 12 -12 23 -10 26 13 13 -75 252 -100 271 -6 4 -5 10 4
16 10 6 10 10 1 16 -17 11 -33 56 -31 93 1 17 -2 32 -6 32 -12 0 -33 50 -33
76 0 13 -4 26 -10 29 -5 3 -10 16 -10 27 0 28 -39 139 -55 158 -7 8 -16 36
-20 63 -4 26 -12 50 -17 53 -5 3 -13 17 -18 30 -9 23 -36 42 -45 32 -3 -3 6
-28 20 -56 14 -29 25 -67 25 -85 0 -18 7 -42 15 -54 9 -13 16 -46 17 -78 1
-32 7 -60 15 -66 19 -16 17 -50 -2 -43 -9 4 -15 0 -15 -10 0 -9 7 -16 15 -16
8 0 15 -8 15 -18 0 -10 6 -24 12 -30 7 -7 13 -35 14 -61 0 -32 8 -58 22 -79
12 -16 22 -37 22 -46 0 -9 5 -16 10 -16 6 0 10 -7 10 -15 0 -16 4 -24 35 -84
10 -19 13 -31 6 -27 -13 9 -13 9 -2 -32 6 -20 6 -30 0 -27 -5 4 -9 2 -9 -4 0
-5 6 -14 13 -18 14 -9 47 -77 47 -98 0 -10 -10 -15 -30 -15 -16 0 -30 -5 -30
-11 0 -6 20 -30 45 -53 25 -24 45 -48 45 -53 0 -5 7 -18 15 -28 45 -59 95
-148 95 -170 0 -3 -8 -5 -17 -6 -11 0 -6 -6 13 -14 21 -9 36 -26 43 -47 6 -18
37 -56 68 -84 40 -37 54 -56 50 -69 -10 -24 -62 -16 -62 10 0 15 -10 22 -43
29 -23 5 -42 14 -42 20 0 6 -10 16 -22 21 -12 6 -39 35 -59 65 -21 30 -43 60
-48 67 -6 7 -11 19 -11 27 0 13 -20 26 -41 26 -5 0 -8 -8 -7 -17 2 -34 -2 -53
-13 -53 -19 0 -114 51 -145 78 -48 43 -65 74 -60 115 3 20 1 39 -4 42 -13 8
-13 65 0 65 6 0 10 9 10 20 0 11 -4 20 -9 20 -5 0 -11 12 -14 27 -17 79 -19
94 -13 108 6 18 4 31 -5 28 -4 -1 -5 6 -2 16 3 11 -2 21 -11 24 -10 4 -16 19
-16 40 0 19 -3 37 -7 41 -5 4 -9 20 -9 34 -5 116 -16 217 -23 221 -16 10 -35
200 -22 224 8 16 8 42 0 97 -19 137 -22 252 -8 261 11 6 10 9 -4 15 -16 6 -16
7 -1 19 16 11 16 14 1 41 -26 47 -117 246 -117 256 0 5 -9 30 -21 55 -11 25
-28 70 -38 102 l-17 56 1 -113z"/>
<path d="M10104 2873 c7 -85 26 -316 31 -365 12 -131 16 -609 6 -728 -7 -74
-18 -236 -26 -360 -16 -235 -25 -302 -51 -360 -70 -155 -120 -237 -182 -302
-49 -51 -89 -68 -44 -19 37 39 64 88 53 95 -15 10 -121 -114 -211 -249 -29
-44 -66 -99 -82 -122 -15 -23 -28 -44 -28 -47 0 -10 -121 -199 -139 -218 -9
-9 -27 -32 -41 -51 -34 -48 -55 -60 -81 -47 -14 8 -17 15 -10 23 6 8 5 20 -4
37 -8 14 -14 35 -15 47 0 12 -9 40 -20 61 -12 22 -23 57 -25 78 -2 22 -5 41
-6 44 -1 3 -1 8 0 13 0 4 -6 7 -14 7 -11 0 -15 13 -17 53 0 28 -1 60 0 70 1 9
-3 17 -8 17 -6 0 -10 -7 -10 -15 0 -9 -9 -15 -25 -15 -14 0 -25 -4 -25 -9 0
-5 -8 -7 -18 -4 -21 5 -40 45 -49 100 -4 21 -12 43 -18 50 -7 6 -15 30 -19 53
-3 23 -14 53 -24 68 -9 14 -16 27 -14 29 1 2 2 15 2 30 0 17 -4 23 -9 17 -12
-12 10 -161 44 -295 15 -56 30 -121 34 -143 5 -23 25 -115 45 -206 20 -91 39
-175 42 -187 l4 -23 414 0 414 0 7 38 c4 20 12 44 19 52 25 29 26 58 2 64 -35
9 -38 7 -31 -24 4 -20 3 -30 -5 -30 -15 0 -64 -49 -73 -72 -7 -20 -24 -23 -46
-9 -9 6 -10 14 -5 22 21 33 31 78 20 89 -7 7 -1 9 24 4 32 -5 33 -4 17 9 -18
15 -18 15 0 20 16 4 16 5 1 6 -22 1 -24 34 -3 51 9 7 15 29 15 51 0 52 15 81
53 100 18 9 31 22 29 29 -1 7 3 19 10 28 10 12 10 16 1 19 -7 3 -13 13 -13 24
0 10 6 19 13 20 6 1 21 2 32 3 16 1 20 7 18 31 -1 16 3 33 10 37 8 5 4 8 -11
8 -13 0 -20 4 -17 10 3 6 17 10 31 10 15 0 24 6 24 15 0 9 8 27 17 41 9 15 18
45 21 67 2 23 11 48 21 56 21 19 45 86 38 105 -4 9 3 16 17 20 18 4 27 18 36
53 7 27 18 57 23 68 6 11 12 35 13 55 2 19 11 40 20 47 14 10 11 13 -20 18
-42 8 -39 25 5 25 22 0 29 5 29 19 0 23 -26 35 -34 15 -3 -8 -15 -14 -27 -14
-20 0 -21 -3 -15 -50 5 -40 4 -50 -8 -50 -8 0 -22 -10 -30 -22 -12 -17 -18
-20 -28 -10 -9 9 -8 20 5 47 9 20 17 49 17 64 0 20 9 37 30 54 17 14 30 33 30
41 0 21 16 21 24 0 10 -25 27 -5 20 23 -5 19 -3 24 7 21 8 -3 15 -15 17 -27 3
-19 6 -18 23 16 10 20 19 53 19 73 0 24 7 42 23 55 l22 20 -29 3 c-16 2 -33
-1 -39 -7 -15 -15 -27 -14 -27 4 0 8 -7 15 -16 15 -8 0 -12 -5 -9 -10 9 -15
-14 -40 -35 -40 -18 0 -34 -25 -26 -39 3 -3 -8 -6 -22 -5 l-27 1 1 109 c2 83
7 121 22 159 19 49 20 51 1 87 -15 30 -17 42 -8 67 7 21 9 84 4 189 -4 86 -6
175 -6 197 1 48 -26 258 -39 300 -5 17 -11 75 -14 130 -2 55 -7 120 -9 145 -2
25 -8 80 -12 123 -10 95 -29 104 -21 10z"/>
<path d="M10776 2206 c-4 -15 -7 -70 -7 -121 0 -51 -4 -115 -9 -142 -30 -167
-41 -250 -44 -320 0 -18 -4 -33 -8 -33 -5 0 -8 -16 -8 -35 0 -19 -4 -35 -8
-35 -4 0 -9 -16 -10 -35 -2 -19 -11 -64 -22 -99 -11 -35 -23 -90 -26 -122 -4
-33 -10 -60 -14 -62 -4 -2 -25 -65 -46 -140 -20 -75 -43 -144 -50 -152 -7 -8
-15 -33 -19 -55 -8 -52 -25 -95 -36 -95 -5 0 -9 -7 -9 -16 0 -19 -61 -170 -99
-244 -57 -113 -76 -145 -88 -158 -7 -8 -11 -17 -8 -22 3 -4 -2 -10 -10 -14 -8
-3 -12 -12 -9 -21 3 -8 1 -15 -5 -15 -6 0 -11 -7 -11 -15 0 -8 -4 -15 -10 -15
-5 0 -10 -11 -10 -25 0 -18 -18 -44 -60 -87 -35 -35 -59 -67 -56 -75 3 -8 -5
-18 -19 -25 -41 -18 -29 -25 48 -27 l73 -2 23 45 c13 24 21 49 17 54 -3 5 3
17 13 26 10 9 24 41 31 72 8 31 20 58 27 61 7 3 13 16 13 29 0 12 10 34 23 48
12 13 29 37 37 53 8 15 21 32 27 36 7 4 13 23 13 42 0 19 14 63 32 97 18 35
31 71 29 82 -1 10 7 27 18 37 12 11 21 28 21 38 0 10 9 30 20 43 10 14 16 28
13 32 -3 3 -2 6 4 6 13 0 33 53 33 89 0 14 14 64 32 111 21 57 32 105 33 144
1 42 6 62 18 71 10 7 17 26 17 46 0 23 10 45 30 69 28 32 30 41 30 112 0 48 4
78 11 80 8 3 5 10 -6 21 -17 17 -17 19 4 41 12 13 24 42 27 72 4 27 12 52 17
56 7 4 6 17 -3 38 -11 27 -11 33 1 41 12 7 12 12 1 29 -15 24 -6 90 12 90 6 0
4 5 -4 11 -11 8 -12 12 -2 16 6 2 12 13 12 23 0 10 -6 20 -12 23 -10 3 -10 9
0 26 10 18 10 27 -4 52 -8 17 -11 28 -5 25 6 -4 13 8 17 29 7 38 -2 58 -15 36
-5 -8 -11 -9 -15 -3 -3 6 -1 12 5 14 7 2 8 15 2 38 l-9 35 -8 -29z"/>
<path d="M2200 1808 c0 -9 4 -38 10 -65 5 -26 17 -95 25 -153 9 -58 21 -110
26 -116 5 -7 12 -36 16 -65 3 -30 10 -60 15 -66 6 -7 7 -20 4 -29 -3 -9 0 -35
8 -57 8 -23 14 -69 14 -103 0 -34 4 -70 10 -80 13 -25 31 -100 36 -144 11
-103 20 -156 28 -167 10 -13 4 -398 -7 -426 -5 -10 -3 -17 5 -17 9 0 9 -4 3
-12 -6 -7 -11 -75 -11 -151 -1 -76 -4 -143 -7 -148 -4 -5 14 -9 39 -9 35 0 48
5 56 19 15 30 12 59 -7 64 -17 4 -17 5 0 6 21 1 23 21 2 21 -8 0 -15 5 -15 10
0 6 3 10 8 10 4 0 7 148 7 329 -1 305 -2 331 -19 350 -13 15 -19 39 -20 88 -2
38 -8 79 -15 92 -7 12 -10 33 -7 46 3 13 1 25 -5 27 -6 2 -13 34 -16 71 -3 37
-10 67 -15 67 -5 0 -6 5 -3 10 4 6 -1 24 -9 41 -9 17 -18 47 -22 68 -4 20 -11
44 -16 53 -5 10 -9 34 -10 53 -1 19 -5 35 -9 35 -4 0 -10 19 -14 43 -4 23 -11
47 -15 52 -11 15 -40 147 -34 157 3 4 2 13 -2 20 -4 7 -9 26 -11 42 -4 33 -23
61 -23 34z"/>
</g>
</svg>
