<?xml version="1.0" standalone="no"?>
<!DOCTYPE svg PUBLIC "-//W3C//DTD SVG 20010904//EN"
 "http://www.w3.org/TR/2001/REC-SVG-20010904/DTD/svg10.dtd">
<svg version="1.0" xmlns="http://www.w3.org/2000/svg"
 width="286.000000pt" height="286.000000pt" viewBox="0 0 286.000000 286.000000"
 preserveAspectRatio="xMidYMid meet">

<g transform="translate(0.000000,286.000000) scale(0.100000,-0.100000)"
fill="#000000" stroke="none">
<path d="M191 2838 c-74 -28 -142 -97 -170 -171 l-21 -58 0 -1179 0 -1179 21
-58 c29 -76 96 -143 172 -172 l58 -21 1179 0 1179 0 58 21 c76 29 143 96 172
172 l21 58 0 1179 0 1179 -21 58 c-29 76 -96 143 -172 172 l-58 21 -1182 -1
c-1174 0 -1182 0 -1236 -21z m2364 -222 c75 -22 70 60 70 -1181 0 -904 -2
-1116 -13 -1142 -26 -61 27 -58 -1187 -58 -967 0 -1114 2 -1140 15 -57 29 -56
2 -53 1200 3 1223 -2 1144 73 1166 58 18 2192 18 2250 0z"/>
<path d="M580 2367 c-72 -43 -112 -108 -118 -192 -3 -53 0 -67 30 -125 28 -53
44 -70 84 -92 42 -23 61 -28 128 -28 66 0 85 4 125 26 79 45 119 133 108 240
-8 79 -41 131 -107 170 -48 29 -64 33 -125 33 -61 0 -77 -4 -125 -32z"/>
<path d="M1740 1772 c-73 -21 -110 -38 -110 -52 0 -6 -6 -10 -13 -10 -15 0
-82 -67 -90 -90 -3 -8 -6 22 -6 68 l-1 82 -195 0 -195 0 0 -640 0 -640 195 0
195 0 0 314 c0 199 4 317 10 321 6 3 10 30 10 59 0 54 22 134 48 174 24 36
126 82 184 82 26 0 48 -4 48 -9 0 -5 10 -12 23 -15 35 -10 76 -52 95 -98 14
-37 17 -96 20 -435 l3 -393 200 0 199 0 0 438 c0 574 -7 614 -119 743 -18 22
-37 39 -42 39 -5 0 -18 9 -28 19 -52 52 -308 77 -431 43z"/>
<path d="M500 1130 l0 -640 200 0 200 0 0 640 0 640 -200 0 -200 0 0 -640z"/>
</g>
</svg>
