<?xml version="1.0" standalone="no"?>
<!DOCTYPE svg PUBLIC "-//W3C//DTD SVG 20010904//EN"
 "http://www.w3.org/TR/2001/REC-SVG-20010904/DTD/svg10.dtd">
<svg version="1.0" xmlns="http://www.w3.org/2000/svg"
 width="256.000000pt" height="256.000000pt" viewBox="0 0 256.000000 256.000000"
 preserveAspectRatio="xMidYMid meet">

<g transform="translate(0.000000,256.000000) scale(0.100000,-0.100000)"
fill="#000000" stroke="none">
<path d="M807 2526 c-19 -18 -37 -48 -41 -66 -3 -18 -6 -241 -6 -496 l0 -464
-288 0 c-322 0 -337 -3 -374 -71 -17 -31 -18 -67 -18 -471 0 -436 0 -438 -21
-438 -43 0 -59 -18 -59 -66 0 -52 19 -95 63 -141 61 -65 46 -64 853 -61 802 3
752 -1 818 65 32 31 50 69 60 125 5 30 3 41 -14 58 -11 11 -31 20 -45 20 l-25
0 0 230 0 230 243 0 c256 0 267 2 267 46 0 36 -21 43 -145 46 l-119 3 -28 95
c-15 52 -28 98 -28 103 0 4 133 7 295 7 l294 0 36 35 35 36 0 569 0 569 -35
36 -36 35 -824 0 -824 0 -34 -34z m1651 -68 c17 -17 17 -1059 0 -1076 -9 -9
-107 -12 -380 -12 -334 0 -368 2 -368 16 0 29 -40 81 -74 98 -29 14 -85 16
-405 16 l-371 0 0 473 c0 355 3 476 12 485 17 17 1569 17 1586 0z m-848 -1077
c6 -13 10 -169 10 -440 l0 -421 -301 0 c-300 0 -339 -4 -339 -35 0 -12 -16
-15 -76 -15 -69 0 -79 3 -100 25 l-23 25 -301 0 -300 0 0 433 c0 239 3 437 7
440 3 4 323 7 709 7 685 0 704 -1 714 -19z m217 -206 l31 -105 -74 0 -74 0 0
105 0 105 43 0 44 0 30 -105z m-1099 -775 c11 -19 23 -20 167 -20 144 0 156 1
167 20 12 19 24 20 320 20 299 0 308 -1 296 -19 -32 -53 -9 -51 -786 -51
l-720 0 -31 26 c-17 14 -31 30 -31 35 0 5 127 9 303 9 291 0 303 -1 315 -20z"/>
<path d="M1934 921 c-62 -38 -64 -50 -64 -451 0 -501 -20 -470 308 -470 324 0
302 -34 302 470 0 406 0 407 -59 449 -27 20 -42 21 -243 21 -191 0 -216 -2
-244 -19z m434 -83 c17 -17 17 -719 0 -736 -17 -17 -369 -17 -386 0 -17 17
-17 719 0 736 17 17 369 17 386 0z"/>
</g>
</svg>
