<?xml version="1.0" standalone="no"?>
<!DOCTYPE svg PUBLIC "-//W3C//DTD SVG 20010904//EN"
 "http://www.w3.org/TR/2001/REC-SVG-20010904/DTD/svg10.dtd">
<svg version="1.0" xmlns="http://www.w3.org/2000/svg"
 width="256.000000pt" height="256.000000pt" viewBox="0 0 256.000000 256.000000"
 preserveAspectRatio="xMidYMid meet">
<metadata>
Created by potrace 1.16, written by Peter Selinger 2001-2019
</metadata>
<g transform="translate(0.000000,256.000000) scale(0.100000,-0.100000)"
fill="#000000" stroke="none">
<path d="M392 2168 c-17 -17 -17 -249 0 -266 18 -18 56 -14 68 7 5 11 10 33
10 50 l0 31 188 0 187 0 -50 -28 c-291 -161 -487 -457 -512 -774 l-6 -78 -33
0 c-62 0 -74 -24 -74 -150 0 -149 1 -150 150 -150 149 0 150 1 150 150 0 126
-12 150 -74 150 l-35 0 6 58 c21 216 121 421 279 573 137 131 262 195 477 243
26 6 27 5 27 -33 0 -45 12 -58 61 -63 l35 -3 -106 -270 c-59 -148 -149 -377
-200 -507 l-93 -238 75 -207 76 -208 -5 -126 c-8 -171 -29 -159 287 -159 206
0 249 3 268 16 21 14 22 22 22 149 l0 133 85 190 c47 104 85 199 85 211 0 12
-88 240 -195 506 -108 267 -198 492 -202 500 -4 12 4 15 35 15 47 0 59 12 64
62 l3 36 91 -23 c360 -91 618 -401 657 -787 l5 -48 -44 0 c-58 0 -64 -14 -64
-149 0 -144 -3 -141 150 -141 153 0 150 -3 150 141 0 135 -6 149 -64 149 l-43
0 -6 73 c-27 314 -226 622 -492 760 l-50 26 193 1 192 0 0 -38 c0 -43 14 -62
47 -62 34 0 43 29 43 145 0 116 -9 145 -43 145 -33 0 -47 -19 -47 -62 l0 -38
-340 0 -340 0 0 38 c0 21 -5 43 -12 50 -17 17 -249 17 -266 0 -7 -7 -12 -29
-12 -50 l0 -38 -340 0 -340 0 0 31 c0 17 -5 39 -10 50 -12 21 -50 25 -68 7z
m869 -1215 c13 -15 38 -17 59 -3 13 8 16 61 20 346 l5 337 154 -382 154 -381
-79 -175 -79 -175 -214 2 -214 3 -63 171 -63 172 152 386 152 386 3 -337 c1
-228 6 -341 13 -350z m219 -608 l0 -85 -200 0 -200 0 0 85 0 85 200 0 200 0 0
-85z"/>
</g>
</svg>
