<?xml version="1.0" standalone="no"?>
<!DOCTYPE svg PUBLIC "-//W3C//DTD SVG 20010904//EN"
 "http://www.w3.org/TR/2001/REC-SVG-20010904/DTD/svg10.dtd">
<svg version="1.0" xmlns="http://www.w3.org/2000/svg"
 width="286.000000pt" height="286.000000pt" viewBox="0 0 286.000000 286.000000"
 preserveAspectRatio="xMidYMid meet">

<g transform="translate(0.000000,286.000000) scale(0.100000,-0.100000)"
fill="#000000" stroke="none">
<path d="M1260 2854 c-77 -15 -238 -69 -250 -84 -3 -3 -31 -21 -63 -39 -70
-40 -134 -95 -221 -189 -51 -56 -134 -212 -156 -294 -45 -169 -44 -385 5 -552
27 -92 120 -286 159 -331 14 -16 26 -34 26 -38 0 -9 59 -98 70 -107 4 -3 23
-30 44 -60 20 -30 46 -66 57 -80 44 -56 159 -220 159 -228 0 -4 10 -18 23 -32
13 -14 45 -58 72 -99 187 -277 190 -281 245 -281 55 0 58 4 245 281 27 41 59
85 72 99 13 14 23 28 23 32 0 9 126 187 167 236 15 19 30 39 32 45 4 12 50 77
62 87 11 10 69 99 69 107 0 4 12 22 26 38 39 45 140 260 164 345 43 159 43
379 0 537 -22 82 -104 238 -154 293 -85 93 -153 151 -223 191 -32 18 -60 35
-63 39 -9 10 -83 40 -155 61 -57 18 -102 22 -240 24 -93 2 -181 1 -195 -1z
m295 -184 c11 -5 46 -16 77 -25 163 -45 260 -116 401 -296 25 -32 53 -97 72
-167 9 -31 20 -65 25 -74 11 -20 14 -231 3 -241 -4 -4 -15 -39 -25 -79 -19
-75 -63 -193 -79 -212 -5 -6 -28 -42 -51 -81 -23 -38 -54 -86 -70 -105 -15
-19 -28 -39 -28 -44 0 -5 -18 -32 -41 -60 -22 -28 -68 -90 -102 -138 -34 -48
-75 -106 -92 -129 -16 -23 -35 -49 -40 -58 -30 -47 -71 -107 -75 -111 -11 -9
-55 -75 -71 -105 -9 -16 -22 -30 -29 -30 -6 0 -24 21 -38 47 -15 26 -36 57
-47 70 -17 20 -54 73 -90 129 -5 9 -23 35 -40 58 -16 23 -58 81 -92 129 -34
48 -80 110 -102 138 -23 28 -41 55 -41 60 0 5 -13 25 -28 44 -33 42 -92 134
-92 144 0 5 -10 22 -22 39 -30 42 -62 120 -83 205 -9 37 -21 75 -26 84 -12 23
-12 223 1 246 5 9 16 43 25 74 19 70 47 135 72 167 83 106 121 145 183 190 78
57 130 82 218 106 31 9 66 20 77 25 38 18 210 18 250 0z"/>
<path d="M1313 2426 c-70 -16 -64 -14 -151 -70 -70 -46 -136 -124 -172 -206
-32 -74 -40 -248 -15 -336 30 -105 115 -214 202 -259 31 -17 63 -35 70 -42 21
-19 80 -28 183 -28 103 0 162 9 183 28 7 7 39 25 70 42 87 45 172 154 202 259
25 88 17 262 -15 336 -53 120 -174 232 -289 267 -69 21 -196 25 -268 9z m230
-204 c110 -49 173 -158 165 -285 -6 -88 -25 -128 -91 -190 -111 -103 -263
-103 -374 0 -66 62 -85 102 -91 190 -6 100 17 162 86 229 84 83 197 104 305
56z"/>
<path d="M805 750 c-38 -27 -75 -49 -82 -49 -6 -1 -27 -14 -45 -31 -18 -16
-38 -30 -45 -30 -21 0 -43 -43 -43 -83 0 -47 27 -77 118 -130 34 -20 72 -46
84 -57 12 -11 25 -20 30 -20 8 0 109 -59 118 -70 10 -10 90 -60 97 -60 5 0 24
-14 43 -30 19 -16 38 -30 42 -30 9 0 107 -59 130 -79 48 -41 135 -80 178 -80
43 0 114 32 181 82 38 27 119 77 127 77 4 0 23 14 42 30 19 16 39 30 44 30 4
0 52 29 106 65 54 36 102 65 106 65 5 0 25 14 44 30 19 16 38 30 42 30 16 0
118 71 132 92 18 26 21 80 6 108 -6 11 -26 27 -45 36 -19 9 -35 20 -35 25 0 5
-19 18 -42 30 -24 12 -69 39 -100 60 -73 50 -135 54 -167 13 -22 -28 -27 -77
-12 -116 5 -13 31 -36 59 -51 81 -44 82 -50 12 -88 -33 -19 -60 -37 -60 -41 0
-4 -18 -17 -40 -28 -37 -19 -181 -110 -255 -160 -16 -12 -56 -36 -88 -55 l-57
-34 -58 34 c-31 18 -65 40 -74 49 -9 8 -32 23 -50 32 -18 9 -64 38 -103 64
-38 26 -89 57 -112 69 -24 12 -43 25 -43 29 0 4 -27 22 -60 41 -70 38 -69 44
12 88 28 15 54 38 59 51 15 39 10 88 -12 116 -17 22 -28 26 -67 25 -40 0 -58
-8 -117 -49z"/>
</g>
</svg>
