<?xml version="1.0" standalone="no"?>
<!DOCTYPE svg PUBLIC "-//W3C//DTD SVG 20010904//EN"
 "http://www.w3.org/TR/2001/REC-SVG-20010904/DTD/svg10.dtd">
<svg version="1.0" xmlns="http://www.w3.org/2000/svg"
 width="286.000000pt" height="286.000000pt" viewBox="0 0 286.000000 286.000000"
 preserveAspectRatio="xMidYMid meet">
<metadata>
Created by potrace 1.16, written by Peter Selinger 2001-2019
</metadata>
<g transform="translate(0.000000,286.000000) scale(0.100000,-0.100000)"
fill="#000000" stroke="none">
<path d="M140 2412 c-46 -22 -101 -79 -123 -124 -16 -34 -17 -97 -15 -875 l3
-838 29 -43 c17 -24 50 -58 75 -75 l46 -32 1275 0 1275 0 46 32 c25 17 58 51
75 75 l29 43 0 850 0 850 -29 43 c-17 24 -50 58 -75 75 l-46 32 -1265 2
c-1181 3 -1267 2 -1300 -15z m1872 -697 c-523 -522 -547 -545 -582 -545 -35 0
-59 23 -582 545 l-546 545 1128 0 1128 0 -546 -545z m-1484 62 l352 -352 -355
-355 -355 -355 0 708 c0 389 1 707 3 707 1 0 161 -159 355 -353z m2162 -354
l0 -708 -355 355 -355 355 352 352 c194 194 354 353 355 353 2 0 3 -318 3
-707z m-1550 -261 c69 -70 143 -136 165 -147 56 -28 194 -28 250 0 22 11 97
78 167 149 103 105 130 127 141 117 8 -6 168 -164 355 -351 l340 -340 -1128 0
-1128 0 351 350 c192 193 353 350 356 350 3 0 62 -57 131 -128z"/>
</g>
</svg>
