<?xml version="1.0" standalone="no"?>
<!DOCTYPE svg PUBLIC "-//W3C//DTD SVG 20010904//EN"
 "http://www.w3.org/TR/2001/REC-SVG-20010904/DTD/svg10.dtd">
<svg version="1.0" xmlns="http://www.w3.org/2000/svg"
 width="286.000000pt" height="286.000000pt" viewBox="0 0 286.000000 286.000000"
 preserveAspectRatio="xMidYMid meet">

<g transform="translate(0.000000,286.000000) scale(0.100000,-0.100000)"
fill="#000000" stroke="none">
<path d="M1360 2849 c-98 -7 -140 -14 -275 -48 -146 -36 -300 -105 -429 -193
-90 -61 -233 -196 -317 -299 -37 -45 -159 -242 -159 -256 0 -4 -14 -42 -31
-83 -45 -109 -57 -153 -75 -270 -42 -266 -8 -582 82 -762 13 -26 24 -53 24
-61 0 -7 16 -40 36 -73 l36 -59 -27 -75 c-15 -41 -31 -90 -35 -108 -4 -18 -28
-88 -52 -155 -68 -187 -138 -400 -134 -404 2 -2 62 15 132 37 71 23 197 63
279 89 83 27 196 63 253 81 l103 33 47 -22 c78 -39 289 -110 374 -127 120 -24
494 -15 593 15 139 42 248 83 313 118 37 20 84 46 105 57 21 11 46 28 57 38
11 10 36 29 57 43 68 45 242 227 297 309 164 246 246 508 246 787 0 214 -51
430 -148 624 -30 61 -58 112 -61 115 -4 3 -27 34 -51 70 -108 162 -364 373
-545 450 -44 18 -85 37 -90 41 -13 10 -190 57 -265 70 -89 17 -238 24 -340 18z
m267 -234 c405 -66 756 -335 910 -699 42 -98 68 -181 82 -260 16 -90 14 -324
-5 -412 -23 -113 -93 -288 -156 -389 -64 -102 -182 -245 -202 -245 -8 0 -21
-11 -29 -24 -47 -71 -326 -216 -502 -260 -146 -36 -463 -29 -594 14 -93 31
-266 109 -292 131 -12 10 -25 19 -28 19 -3 0 -64 -19 -136 -41 -71 -23 -170
-55 -219 -70 -49 -16 -91 -27 -93 -25 -2 2 12 48 30 102 19 54 51 150 72 212
l38 113 -22 27 c-39 49 -142 266 -157 332 -40 181 -46 235 -41 365 7 171 46
326 118 469 72 141 90 166 219 296 137 138 185 173 329 241 223 104 456 140
678 104z"/>
<path d="M920 2083 c-14 -9 -29 -23 -33 -30 -4 -7 -20 -25 -34 -41 -64 -69
-93 -190 -73 -310 7 -42 18 -91 25 -107 18 -45 101 -181 149 -244 60 -79 233
-257 291 -299 28 -20 58 -44 67 -52 55 -50 359 -170 491 -194 84 -15 253 55
317 132 36 44 50 88 50 159 l0 53 -156 75 c-86 41 -168 75 -183 75 -23 0 -40
-15 -95 -84 -36 -47 -75 -88 -86 -91 -26 -8 -192 79 -287 151 -40 30 -92 78
-114 107 -54 66 -119 167 -119 181 0 7 22 38 50 71 73 86 77 106 40 191 -17
38 -37 80 -44 94 -8 14 -19 43 -25 66 -6 23 -21 56 -34 75 -22 33 -25 34 -97
37 -58 2 -81 -1 -100 -15z"/>
</g>
</svg>
