<?xml version="1.0" standalone="no"?>
<!DOCTYPE svg PUBLIC "-//W3C//DTD SVG 20010904//EN"
 "http://www.w3.org/TR/2001/REC-SVG-20010904/DTD/svg10.dtd">
<svg version="1.0" xmlns="http://www.w3.org/2000/svg"
 width="250.000000pt" height="150.000000pt" viewBox="0 0 250.000000 150.000000"
 preserveAspectRatio="xMidYMid meet">

<g transform="translate(0.000000,150.000000) scale(0.100000,-0.100000)"
fill="#000000" stroke="none">
<path d="M129 677 c-66 -35 -102 -93 -107 -171 -5 -78 8 -121 53 -174 66 -77
168 -91 261 -37 52 31 63 54 34 77 -20 16 -22 16 -49 -14 -23 -26 -36 -32 -82
-35 -67 -5 -109 18 -139 76 -81 160 95 325 219 206 25 -23 28 -24 50 -9 l23
16 -29 30 c-58 62 -155 77 -234 35z"/>
<path d="M1520 665 c0 -31 3 -35 25 -35 22 0 25 4 25 35 0 31 -3 35 -25 35
-22 0 -25 -4 -25 -35z"/>
<path d="M524 566 c-60 -19 -66 -24 -54 -46 9 -17 13 -18 45 -4 75 31 145 9
145 -48 l0 -30 -49 7 c-89 12 -171 -31 -171 -91 0 -31 45 -81 80 -89 37 -8 97
9 125 35 l23 22 7 -24 c9 -27 23 -38 49 -38 15 0 17 5 11 32 -4 18 -9 73 -12
122 -5 103 -17 128 -74 150 -46 19 -70 19 -125 2z m120 -162 c10 -4 16 -18 16
-35 0 -34 -40 -59 -94 -59 -61 0 -88 53 -44 84 22 16 92 21 122 10z"/>
<path d="M839 551 c-31 -32 -38 -75 -16 -104 6 -10 46 -30 87 -45 64 -24 75
-31 78 -53 2 -19 -3 -28 -23 -37 -37 -17 -56 -15 -107 11 -45 23 -46 23 -58 4
-9 -16 -9 -22 2 -29 78 -54 206 -48 238 11 16 30 12 76 -7 94 -10 8 -48 25
-86 37 -75 24 -94 45 -71 78 18 27 71 29 115 7 31 -17 49 -13 49 10 0 24 -55
45 -115 45 -49 0 -60 -4 -86 -29z"/>
<path d="M1110 355 l0 -225 35 0 35 0 0 98 c1 78 3 94 13 82 56 -72 168 -65
215 12 46 77 35 165 -30 223 -32 30 -45 35 -87 35 -35 0 -58 -7 -85 -25 l-36
-24 0 24 c0 21 -5 25 -30 25 l-30 0 0 -225z m231 146 c23 -23 29 -38 29 -71 0
-103 -87 -155 -159 -94 -29 24 -31 31 -31 89 0 57 3 66 26 84 41 32 98 28 135
-8z"/>
<path d="M1520 420 l0 -160 25 0 25 0 0 160 0 160 -25 0 -25 0 0 -160z"/>
<path d="M1670 420 l0 -160 25 0 c25 0 25 0 25 94 0 87 2 97 26 125 15 18 39
33 60 37 29 5 34 10 34 35 0 16 -5 29 -11 29 -17 0 -52 -21 -81 -48 l-28 -26
0 37 c0 33 -3 37 -25 37 l-25 0 0 -160z"/>
<path d="M1900 420 l0 -160 25 0 c25 0 25 0 25 94 0 87 2 97 26 125 15 18 39
33 60 37 29 5 34 10 34 35 0 16 -5 29 -11 29 -17 0 -52 -21 -81 -48 l-28 -26
0 37 c0 33 -3 37 -25 37 l-25 0 0 -160z"/>
<path d="M2170 557 c-96 -64 -99 -203 -8 -269 45 -31 143 -33 184 -2 48 35 67
70 71 126 7 99 -59 168 -163 168 -36 0 -61 -6 -84 -23z m154 -55 c96 -101 -35
-259 -133 -161 -26 26 -31 38 -31 81 0 41 5 54 29 79 41 40 96 41 135 1z"/>
</g>
</svg>
