<?xml version="1.0" standalone="no"?>
<!DOCTYPE svg PUBLIC "-//W3C//DTD SVG 20010904//EN"
 "http://www.w3.org/TR/2001/REC-SVG-20010904/DTD/svg10.dtd">
<svg version="1.0" xmlns="http://www.w3.org/2000/svg"
 width="400.000000pt" height="205.000000pt" viewBox="0 0 400.000000 205.000000"
 preserveAspectRatio="xMidYMid meet">

<g transform="translate(0.000000,205.000000) scale(0.100000,-0.100000)"
fill="#000000" stroke="none">
<path d="M0 1501 l0 -548 46 -1 c26 -1 61 -6 78 -11 17 -6 49 -12 71 -15 40
-5 249 -42 295 -52 14 -3 41 -7 61 -8 19 -2 41 -6 47 -10 6 -4 26 -8 44 -10
57 -6 113 -18 125 -28 7 -5 17 -7 22 -3 6 3 28 1 48 -4 21 -6 83 -17 138 -26
131 -19 216 -35 235 -42 8 -4 23 -7 33 -8 9 -2 18 -3 20 -5 2 -2 14 -4 87 -14
25 -3 59 -10 75 -14 17 -5 36 -7 43 -5 6 3 12 0 12 -6 0 -5 17 -10 38 -10 20
0 69 -7 107 -16 39 -9 97 -20 130 -25 72 -10 153 -28 165 -35 5 -3 25 -6 44
-7 29 -1 34 -4 25 -15 -6 -7 -9 -22 -6 -32 3 -14 -2 -21 -18 -25 -13 -3 -30
-3 -38 0 -8 3 -18 1 -22 -5 -3 -6 -19 -11 -34 -11 -15 0 -31 -3 -34 -7 -4 -4
-32 -7 -62 -8 -31 -1 -57 -4 -59 -6 -1 -2 0 -37 3 -76 l6 -73 -115 0 -115 0 3
55 c3 34 -1 61 -8 70 -25 30 -32 15 -28 -55 l4 -70 -58 0 c-65 0 -78 12 -78
74 0 40 -8 66 -21 66 -5 0 -9 -9 -9 -20 0 -21 -15 -27 -25 -10 -3 6 -13 10
-22 10 -10 0 -2 -12 23 -34 36 -31 38 -35 26 -60 -10 -22 -18 -26 -57 -26 -38
0 -45 3 -45 20 0 24 4 25 34 4 39 -25 39 1 0 31 -28 21 -35 33 -31 51 3 15 0
24 -8 24 -9 0 -12 -12 -8 -40 7 -53 -16 -90 -57 -90 -25 0 -30 -4 -30 -24 0
-13 6 -27 13 -29 6 -3 -10 -6 -38 -6 -38 -1 -46 2 -37 11 12 12 17 134 6 162
-14 37 -26 12 -22 -49 l3 -65 -35 0 -35 0 3 61 c4 71 -2 79 -63 79 l-40 0 5
-70 5 -70 -115 0 -115 0 3 55 c3 34 -1 61 -8 70 -18 22 -32 18 -20 -4 20 -39
13 -51 -31 -51 -41 0 -41 0 -26 -22 16 -24 19 -24 52 -12 20 7 20 7 1 -14 -21
-25 -77 -30 -94 -9 -21 25 -24 64 -8 96 9 17 12 31 7 31 -5 0 -11 -9 -14 -21
-4 -15 -12 -20 -29 -17 -22 3 -23 0 -23 -50 l0 -52 -35 0 -35 0 0 67 c0 63 -2
68 -22 71 -22 3 -22 2 -8 -24 16 -31 11 -69 -13 -96 -20 -24 -74 -23 -95 0
-19 21 -22 74 -6 103 10 20 8 20 -60 18 l-71 -3 0 -63 c0 -60 1 -63 25 -63 24
0 32 6 60 45 13 19 14 18 15 -17 l0 -38 -97 0 c-72 1 -93 3 -80 11 13 8 17 23
17 64 0 48 -2 55 -20 55 -19 0 -20 -7 -20 -170 l0 -170 28 0 c26 0 27 -2 24
-45 -3 -36 -1 -45 12 -45 9 0 16 5 16 10 0 6 5 10 10 10 6 0 10 -7 10 -15 0
-11 -11 -15 -43 -15 l-42 0 3 45 c3 28 0 45 -7 45 -7 0 -11 -23 -11 -60 l0
-60 248 2 247 3 1 45 c0 42 2 45 29 48 15 2 32 -2 36 -10 7 -10 9 -10 9 0 0
10 27 12 117 10 l117 -3 7 -33 7 -33 -92 3 c-88 3 -91 4 -96 28 -3 14 -12 26
-22 26 -22 2 -24 -12 -3 -20 25 -9 18 -36 -10 -36 -14 0 -25 5 -25 11 0 6 7 9
15 5 8 -3 15 -1 15 4 0 16 -37 11 -44 -5 -3 -8 -13 -15 -22 -15 -8 0 -14 -6
-12 -12 6 -17 2116 -24 2132 -8 17 17 2 20 -87 21 -89 1 -113 10 -77 29 23 12
27 32 5 24 -8 -4 -15 -1 -15 5 0 6 11 11 25 11 20 0 25 -5 26 -27 l1 -28 10
28 c6 17 17 27 29 27 13 0 19 6 17 16 -2 10 3 19 10 21 8 3 12 -10 13 -44 1
-27 4 -36 6 -21 4 26 6 26 73 25 l68 -1 4 -33 c3 -26 0 -33 -13 -33 -12 0 -15
7 -13 28 l4 27 -11 -27 c-7 -18 -18 -28 -31 -28 -11 0 -18 -5 -16 -12 4 -10
49 -14 170 -16 142 -2 165 0 165 13 0 12 -14 15 -61 16 -34 1 -73 0 -88 -1
-17 -1 -28 4 -28 11 0 10 -3 10 -12 1 -14 -14 -48 -16 -48 -2 0 5 8 7 18 4 16
-5 16 -5 0 9 -27 21 -23 47 7 47 14 0 25 -5 25 -11 0 -7 -9 -9 -22 -6 -22 6
-22 5 -4 -8 17 -13 21 -12 33 5 15 21 53 28 53 10 0 -6 -8 -10 -17 -8 -12 2
-18 -3 -18 -17 0 -15 7 -20 28 -20 24 -1 27 3 25 24 -2 13 3 26 10 28 8 3 12
-6 12 -26 0 -17 5 -31 11 -31 6 0 9 12 7 28 -3 24 0 27 27 27 25 0 31 -5 36
-30 7 -30 10 -27 13 10 1 15 9 21 33 23 28 3 31 1 26 -19 -3 -12 -15 -24 -27
-27 -20 -6 -20 -6 4 -12 15 -4 24 -13 24 -23 -2 -16 33 -17 457 -17 l459 0 0
345 0 345 -26 -16 c-21 -15 -98 -99 -166 -183 -10 -11 -25 -21 -33 -21 -16 0
-20 12 -7 24 4 4 7 11 8 14 0 4 10 39 22 78 24 78 63 123 155 176 l47 28 0
121 c0 108 -2 120 -16 115 -33 -13 -150 -24 -213 -21 -104 5 -236 -50 -311
-130 -45 -48 -191 -164 -300 -240 -47 -32 -99 -69 -117 -83 -18 -13 -58 -37
-90 -52 -56 -28 -58 -28 -61 -9 -2 11 11 39 29 62 29 38 62 68 182 169 21 17
72 76 113 130 96 128 116 150 181 199 l53 41 152 4 153 5 75 38 c41 21 91 42
110 46 71 15 78 41 20 74 -34 19 -92 32 -147 34 -13 0 -87 -29 -113 -44 -8 -5
-26 -14 -40 -20 -32 -13 -203 -111 -210 -119 -3 -3 -21 -12 -40 -20 -32 -12
-210 -99 -305 -149 -22 -11 -70 -34 -107 -51 -87 -39 -170 -110 -245 -207
-117 -151 -280 -283 -349 -283 -33 0 -42 5 -56 30 -16 28 -16 30 13 69 31 43
103 101 125 101 23 0 53 32 87 90 45 79 219 255 285 288 30 15 79 49 110 75
60 51 122 90 262 165 47 25 149 90 228 144 174 121 198 132 275 124 61 -6 116
-31 219 -98 14 -10 31 -18 37 -18 8 0 11 100 11 340 l0 340 -2000 0 -2000 0 0
-549z m84 432 c-5 -5 -12 -12 -16 -18 -4 -6 -8 -2 -8 8 0 9 7 17 17 17 9 0 12
-3 7 -7z m29 -8 c-3 -9 -8 -14 -10 -11 -3 3 -2 9 2 15 9 16 15 13 8 -4z m137
-29 c0 -35 4 -45 20 -49 17 -4 18 -8 7 -31 -12 -26 -33 -37 -24 -12 3 8 -2 16
-14 19 -15 4 -19 14 -19 54 0 27 3 53 7 56 15 16 23 4 23 -37z m148 32 c27
-27 5 -108 -29 -108 -5 0 -9 -9 -9 -20 0 -11 -4 -20 -9 -20 -5 0 -7 9 -4 19 3
13 -2 21 -15 25 -37 12 -48 67 -19 104 12 15 69 16 85 0z m120 -17 c2 -13 -1
-28 -7 -34 -7 -7 -7 -16 0 -29 16 -29 0 -36 -20 -9 -18 23 -18 23 -24 2 -11
-44 -27 -21 -27 40 l0 60 38 -3 c30 -2 38 -7 40 -27z m92 19 c0 -5 -9 -10 -20
-10 -11 0 -20 -4 -20 -10 0 -5 9 -10 20 -10 11 0 20 -7 20 -15 0 -8 -9 -15
-20 -15 -11 0 -20 -4 -20 -9 0 -5 9 -11 20 -14 30 -8 24 -27 -9 -27 -16 0 -31
-3 -34 -7 -2 -5 -2 -2 0 5 1 8 3 38 3 68 0 53 0 54 30 54 17 0 30 -4 30 -10z
m74 -28 c5 -17 12 -32 16 -32 4 0 11 15 16 32 6 18 17 34 27 36 15 3 17 -6 17
-67 0 -38 -4 -73 -10 -76 -6 -4 -10 12 -10 42 -1 46 -1 47 -15 23 -7 -14 -11
-37 -8 -52 4 -19 1 -28 -7 -28 -7 0 -10 8 -7 20 3 11 1 20 -3 20 -4 0 -14 15
-21 33 l-13 32 -3 -32 c-7 -56 -23 -36 -23 28 0 52 2 60 17 57 10 -2 21 -18
27 -36z m1278 -37 c-5 -28 9 -33 28 -10 9 11 33 15 85 15 63 0 73 -3 78 -19 4
-16 -2 -20 -40 -23 -24 -2 -46 -1 -49 1 -2 3 -30 3 -62 2 l-57 -2 -1 30 c-1
18 4 31 11 31 8 0 10 -9 7 -25z m322 4 c80 1 86 0 86 -19 0 -21 -21 -25 -112
-22 -21 1 -38 -3 -38 -8 0 -6 -7 -10 -16 -10 -8 0 -12 5 -9 10 3 6 2 10 -3 10
-12 0 -20 30 -14 49 3 10 6 10 12 1 5 -9 35 -12 94 -11z m428 -4 c-5 -27 15
-35 24 -10 5 12 24 15 84 15 68 0 78 -2 83 -19 4 -16 -2 -20 -40 -23 -24 -2
-46 -1 -49 1 -2 3 -30 3 -62 2 l-57 -2 -1 30 c-1 18 4 31 11 31 8 0 10 -9 7
-25z m317 4 c66 1 83 -2 87 -14 9 -24 3 -26 -75 -27 -39 -1 -71 -5 -71 -10 0
-4 -7 -8 -16 -8 -8 0 -12 5 -9 10 3 6 2 10 -3 10 -12 0 -20 30 -14 49 3 10 6
10 12 1 5 -8 34 -12 89 -11z m433 -4 c-5 -27 15 -35 24 -10 5 12 24 15 84 15
69 0 78 -2 83 -19 4 -17 -1 -20 -37 -23 -22 -2 -71 -2 -108 0 -68 4 -68 4 -68
33 0 18 5 29 14 29 9 0 12 -8 8 -25z m230 14 c3 -8 33 -11 86 -10 67 1 84 -2
88 -14 10 -24 2 -26 -75 -26 -39 0 -71 -4 -71 -9 0 -6 -6 -10 -14 -10 -9 0
-12 9 -10 28 2 15 1 19 -2 10 -9 -29 -24 -20 -22 12 2 30 13 40 20 19z m-3572
-29 c0 -5 -2 -10 -4 -10 -3 0 -8 5 -11 10 -3 6 -1 10 4 10 6 0 11 -4 11 -10z
m200 -62 c0 -5 -4 -8 -10 -8 -5 0 -10 10 -10 23 0 18 2 19 10 7 5 -8 10 -18
10 -22z m85 -6 c-3 -4 -10 0 -15 8 -6 9 -5 17 3 22 13 8 24 -19 12 -30z m75
16 c0 -16 -3 -19 -11 -11 -6 6 -8 16 -5 22 11 17 16 13 16 -11z m150 -7 c0 -4
-7 -8 -15 -8 -16 0 -20 9 -9 20 8 8 24 -1 24 -12z m50 4 c0 -9 -6 -12 -15 -9
-8 4 -15 10 -15 15 0 5 7 9 15 9 8 0 15 -7 15 -15z m1334 -1240 c-4 -8 -10
-12 -15 -9 -14 8 -10 24 6 24 9 0 12 -6 9 -15z m-1527 -421 c-3 -3 -12 -4 -19
-1 -8 3 -5 6 6 6 11 1 17 -2 13 -5z m434 -41 c1 -45 1 -46 11 -20 8 23 15 28
37 25 22 -2 26 -8 26 -33 0 -30 0 -30 -62 -32 -70 -2 -92 12 -73 46 6 12 18
21 26 21 10 0 14 6 11 14 -3 8 -3 17 0 20 16 15 23 2 24 -41z m119 10 c1 -29
3 -34 10 -21 8 12 25 16 70 16 51 0 58 -2 44 -13 -11 -8 -15 -20 -11 -34 4
-16 1 -21 -13 -21 -13 0 -16 6 -13 28 l4 27 -13 -25 c-17 -31 -47 -38 -66 -14
-13 17 -14 17 -9 1 5 -13 1 -17 -16 -17 -20 0 -22 4 -19 55 3 39 8 55 18 55 9
0 14 -12 14 -37z m2190 -13 c0 -30 4 -50 11 -50 7 0 9 10 7 25 -4 20 1 28 25
40 17 8 32 13 34 11 3 -2 6 -23 7 -45 3 -34 0 -41 -13 -39 -9 2 -19 17 -23 33
l-7 30 3 -33 3 -33 -71 3 -71 3 0 30 c0 25 4 30 24 30 13 0 26 -6 29 -12 2 -8
-5 -13 -17 -13 -12 0 -21 -4 -21 -9 0 -16 18 -22 26 -10 4 8 9 7 15 -2 6 -9 9
5 9 39 0 39 4 52 15 52 11 0 15 -12 15 -50z m-1889 23 c6 -82 6 -84 -10 -81
-9 2 -19 17 -23 33 l-7 30 3 -32 c2 -25 -2 -33 -13 -33 -27 0 -19 59 10 75 29
16 39 18 40 8z m330 -5 c1 -7 0 -23 -1 -36 -1 -16 5 -25 19 -29 25 -6 28 -33
4 -33 -15 0 -16 2 -3 10 12 8 9 10 -13 10 -20 0 -30 6 -34 20 -5 20 -53 30
-53 11 0 -17 22 -24 31 -10 7 11 9 10 9 -4 0 -14 -6 -18 -27 -15 -24 3 -28 8
-28 33 0 26 4 30 30 33 17 2 34 8 40 13 13 13 25 11 26 -3z m521 0 c6 -16 79
-12 91 5 7 9 10 9 14 0 2 -7 13 -13 24 -13 15 0 19 -7 19 -31 0 -19 4 -28 11
-23 6 3 9 17 7 29 -4 21 -1 23 41 23 30 1 41 -2 32 -7 -8 -6 -12 -19 -9 -35
l5 -26 -73 1 -74 1 0 32 c0 17 -4 26 -8 20 -4 -7 -17 -14 -29 -15 -17 -3 -20
-7 -13 -19 9 -13 11 -13 19 0 11 16 27 7 17 -9 -4 -6 -27 -10 -51 -9 -42 0
-45 3 -45 27 0 21 -5 26 -25 26 -20 0 -25 -5 -23 -20 2 -13 9 -19 21 -17 9 2
17 -1 17 -6 0 -5 -61 -9 -135 -10 -123 -2 -134 0 -129 16 5 16 5 16 -5 0 -15
-23 -117 -23 -130 1 -19 33 35 72 55 39 5 -8 0 -9 -14 -6 -18 5 -22 2 -22 -18
0 -36 32 -28 44 12 6 20 13 22 101 22 54 -1 95 -5 95 -10 0 -6 -8 -7 -17 -4
-15 5 -14 3 2 -9 18 -14 20 -14 27 5 6 17 15 19 69 17 43 -2 63 1 66 10 6 16
20 17 25 1z m-1791 -16 c1 -4 2 -20 3 -35 l2 -28 -85 3 -86 3 -6 30 c-5 24 -7
27 -13 12 -5 -9 -6 -24 -2 -32 3 -10 -1 -15 -13 -15 -14 0 -17 6 -15 28 l4 27
-11 -27 c-7 -20 -18 -28 -34 -28 -29 0 -47 28 -34 51 7 14 29 17 149 18 77 0
141 -3 141 -7z m81 -27 c3 -27 0 -35 -12 -35 -11 0 -15 9 -13 32 2 40 1 38 12
38 5 0 11 -16 13 -35z m778 24 c0 -6 -7 -9 -15 -5 -8 3 -15 1 -15 -4 0 -6 7
-10 15 -10 8 0 15 -9 15 -20 0 -15 -7 -20 -25 -20 -14 0 -25 5 -25 11 0 6 7 9
15 5 8 -3 15 -1 15 4 0 6 -7 10 -15 10 -8 0 -15 9 -15 20 0 15 7 20 25 20 14
0 25 -5 25 -11z m302 -24 l4 -35 -88 0 c-69 0 -88 3 -88 14 0 8 7 16 15 20 8
3 15 10 15 15 0 6 -7 8 -15 5 -8 -4 -15 -2 -15 4 0 5 37 10 84 11 l84 1 4 -35z"/>
<path d="M332 1908 c-30 -30 3 -77 40 -57 30 16 16 69 -17 69 -6 0 -16 -5 -23
-12z"/>
<path d="M470 1900 c0 -13 5 -20 13 -17 6 2 12 10 12 17 0 7 -6 15 -12 18 -8
2 -13 -5 -13 -18z"/>
<path d="M956 81 c-8 -12 3 -41 15 -41 12 0 12 37 0 45 -5 3 -12 1 -15 -4z"/>
<path d="M880 60 c0 -11 5 -20 10 -20 6 0 10 9 10 20 0 11 -4 20 -10 20 -5 0
-10 -9 -10 -20z"/>
<path d="M1070 71 c0 -22 16 -36 24 -22 8 12 -3 41 -15 41 -5 0 -9 -9 -9 -19z"/>
<path d="M1846 81 c-8 -12 3 -41 15 -41 12 0 12 37 0 45 -5 3 -12 1 -15 -4z"/>
<path d="M2190 70 c0 -11 2 -20 4 -20 2 0 6 9 9 20 3 11 1 20 -4 20 -5 0 -9
-9 -9 -20z"/>
<path d="M2300 70 c0 -11 5 -20 10 -20 6 0 10 9 10 20 0 11 -4 20 -10 20 -5 0
-10 -9 -10 -20z"/>
<path d="M1932 60 c0 -14 2 -19 5 -12 2 6 2 18 0 25 -3 6 -5 1 -5 -13z"/>
<path d="M2381 64 c0 -11 3 -14 6 -6 3 7 2 16 -1 19 -3 4 -6 -2 -5 -13z"/>
<path d="M1970 61 c0 -10 30 -24 37 -17 3 2 -5 9 -16 16 -12 6 -21 7 -21 1z"/>
<path d="M2056 55 c4 -8 10 -15 14 -15 4 0 10 7 14 15 4 10 -1 15 -14 15 -13
0 -18 -5 -14 -15z"/>
<path d="M130 71 c0 -22 16 -36 24 -22 8 12 -3 41 -15 41 -5 0 -9 -9 -9 -19z"/>
<path d="M372 65 c0 -16 2 -22 5 -12 2 9 2 23 0 30 -3 6 -5 -1 -5 -18z"/>
<path d="M327 60 c-3 -11 -1 -20 4 -20 5 0 9 9 9 20 0 11 -2 20 -4 20 -2 0 -6
-9 -9 -20z"/>
<path d="M256 55 c8 -19 12 -19 30 0 14 13 13 15 -10 15 -18 0 -24 -4 -20 -15z"/>
<path d="M1487 83 c-11 -10 -8 -43 3 -43 6 0 10 11 10 25 0 26 -2 29 -13 18z"/>
<path d="M1527 83 c-11 -10 -8 -43 3 -43 6 0 10 11 10 25 0 26 -2 29 -13 18z"/>
<path d="M1451 64 c0 -11 3 -14 6 -6 3 7 2 16 -1 19 -3 4 -6 -2 -5 -13z"/>
<path d="M1390 431 c0 -23 0 -44 -1 -48 0 -4 4 -9 10 -11 14 -5 15 84 1 93 -6
4 -10 -10 -10 -34z"/>
<path d="M272 408 c4 -67 22 -65 26 2 2 40 0 50 -13 50 -13 0 -15 -10 -13 -52z"/>
<path d="M546 444 c-9 -22 -8 -24 9 -24 8 0 15 9 15 20 0 24 -15 27 -24 4z"/>
<path d="M694 415 c-7 -38 0 -65 16 -65 5 0 10 22 10 50 0 57 -16 67 -26 15z"/>
<path d="M777 415 c-7 -41 0 -68 17 -62 14 5 14 89 0 94 -6 2 -14 -12 -17 -32z"/>
<path d="M1107 443 c-4 -3 -7 -23 -7 -44 0 -47 26 -61 35 -19 10 46 -7 84 -28
63z"/>
<path d="M1556 409 c-7 -41 -2 -59 15 -59 5 0 9 23 9 50 0 60 -15 66 -24 9z"/>
<path d="M1640 400 c0 -37 4 -50 13 -47 7 2 12 21 12 47 0 26 -5 45 -12 48 -9
2 -13 -11 -13 -48z"/>
<path d="M527 83 c-11 -10 -8 -43 3 -43 6 0 10 11 10 25 0 26 -2 29 -13 18z"/>
<path d="M656 73 c-4 -9 -2 -21 4 -27 7 -7 10 -2 10 17 0 31 -5 34 -14 10z"/>
<path d="M2564 76 c-4 -10 -2 -22 4 -28 8 -8 13 -7 18 6 4 10 2 22 -4 28 -8 8
-13 7 -18 -6z"/>
<path d="M2684 76 c-4 -10 -2 -22 4 -28 8 -8 13 -7 18 6 4 10 2 22 -4 28 -8 8
-13 7 -18 -6z"/>
<path d="M2977 83 c-11 -10 -8 -43 3 -43 6 0 10 11 10 25 0 26 -2 29 -13 18z"/>
<path d="M3040 75 c0 -8 5 -15 10 -15 6 0 10 7 10 15 0 8 -4 15 -10 15 -5 0
-10 -7 -10 -15z"/>
<path d="M696 71 c-4 -7 -5 -15 -2 -18 9 -9 19 4 14 18 -4 11 -6 11 -12 0z"/>
<path d="M730 60 c0 -11 5 -20 10 -20 6 0 10 9 10 20 0 11 -4 20 -10 20 -5 0
-10 -9 -10 -20z"/>
<path d="M770 60 c0 -11 5 -20 10 -20 6 0 10 9 10 20 0 11 -4 20 -10 20 -5 0
-10 -9 -10 -20z"/>
<path d="M2652 60 c0 -14 2 -19 5 -12 2 6 2 18 0 25 -3 6 -5 1 -5 -13z"/>
<path d="M3030 20 c0 -13 37 -13 45 0 4 6 -5 10 -19 10 -14 0 -26 -4 -26 -10z"/>
</g>
</svg>
