<?xml version="1.0" standalone="no"?>
<!DOCTYPE svg PUBLIC "-//W3C//DTD SVG 20010904//EN"
 "http://www.w3.org/TR/2001/REC-SVG-20010904/DTD/svg10.dtd">
<svg version="1.0" xmlns="http://www.w3.org/2000/svg"
 width="256.000000pt" height="256.000000pt" viewBox="0 0 256.000000 256.000000"
 preserveAspectRatio="xMidYMid meet">

<g transform="translate(0.000000,256.000000) scale(0.100000,-0.100000)"
fill="#000000" stroke="none">
<path d="M117 2443 c-12 -11 -8 -1961 3 -2032 19 -113 89 -211 187 -260 79
-40 139 -42 1158 -39 l980 3 3 980 c1 644 -1 1003 -8 1048 -24 161 -133 271
-291 297 -71 11 -2021 15 -2032 3z m1028 -751 c97 -44 153 -122 162 -223 15
-157 -74 -268 -243 -304 -38 -8 -97 -15 -131 -15 l-62 0 -3 -147 -3 -148 -82
-3 -83 -3 0 436 0 437 198 -4 c180 -3 201 -5 247 -26z m638 -214 l37 -11 0
-64 c0 -34 -1 -63 -2 -63 -2 0 -27 9 -56 20 -69 26 -153 27 -176 1 -10 -11
-16 -31 -14 -48 3 -25 15 -34 105 -78 119 -59 146 -82 169 -142 38 -98 -23
-207 -135 -240 -71 -20 -203 -13 -258 13 -38 19 -38 19 -41 87 -2 37 -2 67 0
67 2 0 30 -14 62 -30 104 -53 226 -37 226 30 0 31 -27 52 -132 103 -113 55
-139 84 -146 163 -6 67 1 95 34 134 31 37 70 58 127 70 47 10 143 4 200 -12z"/>
<path d="M870 1434 l0 -167 78 5 c135 8 193 52 199 155 8 115 -58 173 -199
173 l-78 0 0 -166z"/>
</g>
</svg>
